<svg xmlns="http://www.w3.org/2000/svg"><defs><font horiz-adv-x="922"><font-face ascent="1638" descent="-410" units-per-em="2048"/><missing-glyph horiz-adv-x="430"/><glyph horiz-adv-x="430" unicode="&#xd;"/><glyph horiz-adv-x="430" unicode="&#x20;"/><glyph horiz-adv-x="430" unicode="&#x09;"/><glyph horiz-adv-x="430" unicode="&#xa0;"/><glyph d="M150 351v743h166v-743h-166zM115 83q0 25 9.5 46.5t25.5 37.5 37.5 25.5 46.5 9.5 46.5-9.5 37.5-25.5 25.5-37.5 9.5-46.5-9.5-46.5-25.5-37.5-37.5-25.5-46.5-9.5-46.5 9.5-37.5 25.5-25.5 37.5-9.5 46.5z" horiz-adv-x="466" unicode="&#x21;"/><glyph d="M373 827v493h150v-493h-150zM95 827v493h150v-493h-150z" horiz-adv-x="618" unicode="&#x22;"/><glyph d="M1176 286h-306l-64-286h-154l64 286h-259l-64-286h-154l64 286h-179v150h213l57 254h-270v150h304l57 254h154l-57-254h259l57 254h154l-57-254h181v-150h-215l-57-254h272v-150zM491 436h259l57 254h-259z" horiz-adv-x="1306" unicode="&#x23;"/><glyph d="M516 1320v-219q75-5 142.5-31.5t134.5-65.5l-74-124q-70 42-144.5 62.5t-133.5 20.5q-39 0-76-11.5t-65.5-34.5-45.5-57-17-78q0-36 21-62.5t52-45.5 66.5-31.5 64.5-20.5q28-8 67-19.5t80-28.5 81-40.5 72-54.5 51.5-71 19.5-90q0-68-25-124t-67-97.5-96-68.5-110-37v-219h-150v219q-32 4-72 13t-79 23-75.5 33-66.5 44l74 124q29-29 68-47.5t80-29.5 80-15.5 68-4.5q39 0 79 12.5t73 36.5 53.5 59 20.5 79q0 36-24.5 62t-59.5 45-74 31.5-68 20.5q-28 8-65 19.5t-76 28.5-76.5 40.5-66.5 55-47 71.5-18 90q0 68 22.5 122.5t60.5 95 88 66 103 35.5v219h150z" horiz-adv-x="1146" unicode="&#x24;"/><glyph d="M140 814q0 49 10 101t34 95 63.5 70.5 97.5 27.5q56 0 109-12t104-26.5 100-26.5 98-12q20 0 49.5 2.5t60 11 57.5 23.5 42 40l126-80-659-1042-126 80 545 862q-12-6-37-12.5t-59-6.5q-37 0-68 6.5t-58 15-51.5 16-46.5 10.5q11-34 15-72t4-71q0-49-10.5-100.5t-34.5-94-63.5-70-98.5-27.5q-58 0-97 27.5t-62.5 70-33.5 94-10 100.5zM852 278q0 49 10 101t34 95 63.5 70.5 97.5 27.5 97.5-27.5 63.5-70.5 34-95 10-101-10.5-100.5-34.5-94-63.5-70-98.5-27.5q-58 0-97 27.5t-62.5 70-33.5 94-10 100.5zM987 278q0-26 3.5-53.5t11-50.5 20.5-38 33-15q21 0 34.5 15t22 38 12 50.5 3.5 53.5-3.5 54-12 51.5-22 38.5-32.5 15q-20 0-33.5-15t-21.5-38.5-11.5-51.5-3.5-54zM275 814q0-26 3.5-53.5t11-50.5 20.5-38 33-15q21 0 34.5 15t22 38 12 50.5 3.5 53.5-3.5 54-12 51.5-22 38.5-32.5 15q-20 0-33.5-15t-21.5-38.5-11.5-51.5-3.5-54z" horiz-adv-x="1431" unicode="&#x25;"/><glyph d="M80 827v493h150v-493h-150z" horiz-adv-x="310" unicode="&#x27;"/><glyph d="M264 551q0-90 9-171t24-153 34.5-134.5 39.5-113.5q47-121 107-215l-116-84q-68 105-121 240-23 57-44.5 126t-38.5 148.5-27.5 169-10.5 187.5 10.5 187.5 27.5 169 38.5 148.5 44.5 126q53 134 121 239l116-84q-60-93-107-214-20-51-39.5-113.5t-34.5-134.5-24-153.5-9-170.5z" horiz-adv-x="598" unicode="&#x28;"/><glyph d="M334 551q0 89-9.5 170.5t-24.5 153.5-34 134.5-39 113.5q-48 121-107 214l116 84q67-105 121-239 22-57 44-126t39-148.5 27.5-169 10.5-187.5-10.5-187.5-27.5-169-39-148.5-44-126q-54-135-121-240l-116 84q59 94 107 215 20 51 39 113.5t34 134.5 24.5 153 9.5 171z" horiz-adv-x="598" unicode="&#x29;"/><glyph d="M474 1180l227 75 44-134-228-75 142-194-114-82-142 194-141-194-114 82 141 194-228 75 42 134 231-76v242h140v-241zM446 1084q0 17-12.5 30t-30.5 13-30.5-13-12.5-30q0-18 12.5-30.5t30.5-12.5 30.5 12.5 12.5 30.5z" horiz-adv-x="874" unicode="&#x2a;"/><glyph d="M536 922v-272h272v-150h-272v-272h-150v272h-272v150h272v272h150z" unicode="&#x2b;"/><glyph d="M40-320q8 21 19.5 56t23 78 23 90.5 20.5 94.5 14.5 90 5.5 77h166q0-34-7.5-77.5t-19.5-90-27.5-94.5-32.5-90.5-33.5-77.5-29.5-56h-122z" horiz-adv-x="394" unicode="&#x2c;"/><glyph d="M749 500h-575v150h575v-150z" horiz-adv-x="923" unicode="&#x2d;"/><glyph d="M110 83q0 25 9.5 46.5t25.5 37.5 37.5 25.5 46.5 9.5 46.5-9.5 37.5-25.5 25.5-37.5 9.5-46.5-9.5-46.5-25.5-37.5-37.5-25.5-46.5-9.5-46.5 9.5-37.5 25.5-25.5 37.5-9.5 46.5z" horiz-adv-x="458" unicode="&#x2e;"/><glyph d="M154-286l396 1707 146-34-396-1707z" horiz-adv-x="843" unicode="&#x2f;"/><glyph d="M69 547q0 62 8.5 128t27 128.5 48.5 118 73.5 97 101.5 65.5 133 24 133-24 101.5-65.5 73.5-97 48.5-118 27-128.5 8.5-128q0-63-8.5-128.5t-27.5-128-49.5-118-74-97-102-65.5-132.5-24q-75 0-132.5 24t-101 65.5-73.5 97-48.5 118-26.5 128-8 128.5zM214 547q0-69 11.5-143t39-134.5 75-99.5 119.5-39 120 39 76.5 99.5 40.5 134.5 12 143-11.5 143-39.5 134.5-76 99.5-120 39-120-39-76-99.5-39.5-134.5-11.5-143z" unicode="&#x30;"/><glyph d="M217 897l295 197h132v-1094h-150v908l-197-131z" unicode="&#x31;"/><glyph d="M111 992q47 32 102 58 48 22 110 40t134 18q73 0 137-21.5t111.5-63.5 75-103 27.5-140q0-57-23.5-107.5t-64.5-95-96-82.5-118-70q-43-22-86-46.5t-77-51.5-55.5-58-21.5-66q0-11 1.5-26t5.5-27h537v-150h-663q-16 54-24.5 104t-8.5 99q0 58 25.5 107t70 91.5 104 79.5 128.5 72q47 24 87.5 50t70.5 54.5 47 59 17 63.5q0 44-16.5 78.5t-44.5 58-65.5 35.5-80.5 12q-54 0-101-13.5t-82-30.5q-41-19-77-44z" unicode="&#x32;"/><glyph d="M355 639q18 4 46 9.5t59.5 14 63 20.5 57 29.5 41.5 41.5 16 56q0 30-13.5 58t-39.5 49-63 34-85 13q-54 0-99.5-11t-78.5-24q-39-16-69-35l-68 128q40 24 89 43 42 16 99.5 29.5t126.5 13.5q81 0 145.5-24.5t108.5-66 67.5-95.5 23.5-112q0-38-10-70t-27-58.5-41-48-51-38.5q32-19 63-45t55-60.5 39-78 15-98.5q0-85-30-146.5t-82-101.5-120.5-59.5-146.5-19.5q-82 0-149.5 18t-116.5 40q-57 26-104 59l82 118q35-26 79-46 38-17 90.5-31t118.5-14q48 0 91 11t75 33.5 50.5 57 18.5 81.5q0 48-18.5 86t-45 66.5-54 46.5-45.5 25q-40-12-76-19t-65-11z" unicode="&#x33;"/><glyph d="M872 228h-144v-228h-150v228h-437q-17 43-27 86t-10 100q0 60 21 111.5t53 98 70.5 89 73.5 83.5l256 298h150v-716h144v-150zM578 378v498l-160-182q-26-29-56-64.5t-56-72.5-43.5-73.5-17.5-69.5q0-9 1.5-18.5t4.5-17.5h327z" unicode="&#x34;"/><glyph d="M796 944h-482q-3-33-5.5-61.5t-5.5-57.5-6-61.5-7-72.5h175q73 0 129-16.5t97.5-44 69.5-63 45-73.5 24-76 7-70q0-77-25-143t-74-115-121.5-76.5-166.5-27.5q-81 0-147.5 12.5t-115.5 27.5q-57 18-103 40l66 128q37-18 84-32 40-12 94.5-22t121.5-10q59 0 104 17t76 46 46.5 69 15.5 86q0 28-10.5 62.5t-36 64.5-69.5 50.5-111 20.5h-334l50 548h615v-150z" unicode="&#x35;"/><glyph d="M753 964q-119 0-204.5-27t-144.5-72.5-95-104-55-121.5q42 48 101.5 77.5t137.5 29.5q76 0 141-30.5t112-82 74-120.5 27-147-27.5-147-77.5-120.5-121.5-82-159.5-30.5-159.5 30.5-121.5 82-77.5 120.5-27.5 147q0 48 3 105t13 118 30 123.5 53.5 120 83 107.5 120 87.5 163 59 212.5 21.5v-144zM461 602q-55 0-100-18.5t-76.5-51-48.5-75.5-17-91 17-91 48.5-75.5 76.5-51 100-18.5 100 18.5 76.5 51 48.5 75.5 17 91-17 91-48.5 75.5-76.5 51-100 18.5z" unicode="&#x36;"/><glyph d="M315 0q2 75 17 143.5t40 132 59.5 124 75.5 119.5q35 50 68.5 100t59.5 96.5 42 89.5 16 80q0 32-6 59h-564v150h684q8-21 15-52 6-26 11-65t5-92-18.5-108.5-48.5-112-68-114.5-78-115q-71-101-114.5-209t-45.5-226h-150z" unicode="&#x37;"/><glyph d="M798 818q0-39-10-74.5t-26-67-35-58.5-37-47q70-45 111.5-111t41.5-159q0-55-18-111t-61.5-101.5-117.5-74-185-28.5-185 28.5-117.5 74-61.5 101.5-18 111q0 52 14 99t36.5 87 49.5 72.5 53 57.5q-48 36-78 87t-30 114q0 55 24 107.5t68.5 93 106.5 65 138 24.5 138-24.5 106.5-65 68.5-93 24-107.5zM699 301q0 40-17 71t-45 56-64 43.5-74 33.5-76 26.5-69 22.5q-18-14-41-38.5t-43-57-33.5-72.5-13.5-85q0-30 11-60.5t38.5-55 73.5-40 115-15.5 115 15.5 73.5 40 38.5 55 11 60.5zM268 818q0-35 30.5-64.5t75-53 95.5-41.5 92-30q13 10 29 29t30.5 44 24 54.5 9.5 61.5q0 29-14.5 55.5t-40 46.5-61 32-77.5 12-77.5-12-61-32-40-46.5-14.5-55.5z" unicode="&#x38;"/><glyph d="M169 130q119 0 204.5 27t144.5 72 94.5 103.5 55.5 121.5q-43-48-102-77t-137-29q-76 0-141 30.5t-112 82-74 120.5-27 147 27.5 147 77.5 120.5 121.5 82 159.5 30.5 159.5-30.5 121.5-82 77.5-120.5 27.5-147q0-48-3-105t-13-118-30-123.5-53.5-120-83-107.5-120-87.5-163-59-212.5-21.5v144zM461 492q55 0 100 18.5t76.5 51 48.5 75.5 17 91-17 91-48.5 75.5-76.5 51-100 18.5-100-18.5-76.5-51-48.5-75.5-17-91 17-91 48.5-75.5 76.5-51 100-18.5z" unicode="&#x39;"/><glyph d="M110 83q0 25 9.5 46.5t25.5 37.5 37.5 25.5 46.5 9.5 46.5-9.5 37.5-25.5 25.5-37.5 9.5-46.5-9.5-46.5-25.5-37.5-37.5-25.5-46.5-9.5-46.5 9.5-37.5 25.5-25.5 37.5-9.5 46.5zM110 698q0 25 9.5 46.5t25.5 37.5 37.5 25.5 46.5 9.5 46.5-9.5 37.5-25.5 25.5-37.5 9.5-46.5-9.5-46.5-25.5-37.5-37.5-25.5-46.5-9.5-46.5 9.5-37.5 25.5-25.5 37.5-9.5 46.5z" horiz-adv-x="458" unicode="&#x3a;"/><glyph d="M4-320q8 21 19.5 56t23 78 23 90.5 20.5 94.5 14.5 90 5.5 77h166q0-34-7.5-77.5t-19.5-90-27.5-94.5-32.5-90.5-33.5-77.5-29.5-56h-122zM74 698q0 25 9.5 46.5t25.5 37.5 37.5 25.5 46.5 9.5 46.5-9.5 37.5-25.5 25.5-37.5 9.5-46.5-9.5-46.5-25.5-37.5-37.5-25.5-46.5-9.5-46.5 9.5-37.5 25.5-25.5 37.5-9.5 46.5z" horiz-adv-x="386" unicode="&#x3b;"/><glyph d="M803 994l-490-422 490-422-94-108-616 530 616 532z" unicode="&#x3c;"/><glyph d="M748 666h-574v150h574v-150zM748 334h-574v150h574v-150z" unicode="&#x3d;"/><glyph d="M213 1104l616-532-616-530-94 108 490 422-490 422z" unicode="&#x3e;"/><glyph d="M106 1007q42 28 88.5 48.5t92.5 34.5 89.5 21 80.5 7q67 0 132.5-15t116.5-49.5 82.5-89.5 31.5-134q0-50-12.5-90.5t-33.5-74.5-49-63.5-59-57.5q-68-63-98-117t-30-77h-166q0 24 10 70t32 84 56 74 82 80q21 19 40.5 39t34 41 23 43.5 8.5 48.5q0 41-17.5 66t-45.5 38.5-64.5 17.5-73.5 4q-27 0-59.5-5.5t-67-16-69.5-26.5-67-37zM337 83q0 25 9.5 46.5t25.5 37.5 37.5 25.5 46.5 9.5 46.5-9.5 37.5-25.5 25.5-37.5 9.5-46.5-9.5-46.5-25.5-37.5-37.5-25.5-46.5-9.5-46.5 9.5-37.5 25.5-25.5 37.5-9.5 46.5z" horiz-adv-x="945" unicode="&#x3f;"/><glyph d="M1070-67q-24-53-58.5-99t-81.5-80-108.5-54-139.5-20q-90 0-163 38t-130 103.5-98.5 152.5-68 184.5-39.5 200.5-13 199 13 197.5 39.5 197.5 68 181 98.5 149 130 101 163 37 158.5-26.5 119-71.5 84-103.5 53.5-122 28.5-128 8.5-121.5v-405h98v-150h-243v141q-24-29-51-54.5t-59.5-45-70-31-81.5-11.5q-48 0-92.5 16t-79 49-55 84-20.5 122q0 59 22 110.5t65.5 90 107.5 61 148 22.5h166q0 43-5 91.5t-18.5 96.5-35.5 91.5-56.5 76.5-81.5 53-110 20-114.5-31-92.5-84-71-123.5-50-150.5-29.5-164.5-9.5-164.5q0-81 9.5-166.5t29.5-167 50-154 71-127 92.5-86.5 114.5-32q53 0 95 12.5t74.5 35 55.5 54 39 68.5zM624 563q0-33 8.5-57t22.5-39.5 33-23 39-7.5q43 0 80.5 18t70 46 60.5 62.5 51 67.5v67h-163q-53 0-91-13t-63-35.5-36.5-52.5-11.5-65v32z" horiz-adv-x="1402" unicode="&#x40;"/><glyph d="M539-320h-419v1741h419v-150h-269v-1441h269v-150z" horiz-adv-x="659" unicode="&#x5b;"/><glyph d="M550-320l-396 1707 146 34 396-1707z" horiz-adv-x="843" unicode="&#x5c;"/><glyph d="M120-170h269v1441h-269v150h419v-1741h-419v150z" horiz-adv-x="659" unicode="&#x5d;"/><glyph d="M118 805l343 616 343-616-131-73-212 385-212-385z" unicode="&#x5e;"/><glyph d="M925-320h-926v150h926v-150z" horiz-adv-x="924" unicode="&#x5f;"/><glyph d="M80 827v493h150v-493h-150z" horiz-adv-x="310" unicode="&#x60;"/><glyph d="M120 626h199q4 90 16.5 172t30 154.5 39 135.5 42.5 115q50 122 112 218l116-84q-60-94-107-215-20-51-39.5-113.5t-34.5-134.5-24-153.5-9-170.5q0-90 9-171t24-153 34.5-134.5 39.5-113.5q47-121 107-214l-116-84q-62 96-112 218-21 52-42.5 115t-39 136-30 155-16.5 172h-199v150z" horiz-adv-x="795" unicode="&#x7b;"/><glyph d="M110-320v1741h150v-1741h-150z" horiz-adv-x="370" unicode="&#x7c;"/><glyph d="M675 476h-199q-4-90-16.5-172t-30-155-39-136-42.5-115q-50-122-112-218l-116 84q59 93 107 214 20 51 39 113.5t34 134.5 24.5 153 9.5 171q0 89-9.5 170.5t-24.5 153.5-34 134.5-39 113.5q-48 121-107 215l116 84q62-96 112-218 21-52 42.5-115t39-135.5 30-154.5 16.5-172h199v-150z" horiz-adv-x="795" unicode="&#x7d;"/><glyph d="M50 450q24 44 58 86t76.5 75 92 53.5 102.5 20.5q55 0 115-22t122-49q27-12 54-23t52.5-20 48.5-14.5 42-5.5q31 0 60.5 13.5t55.5 36 48.5 51 38.5 58.5l126-68q-24-44-58-86t-76.5-75-92-53.5-102.5-20.5q-60 0-124.5 23.5t-129.5 51.5q-52 23-100 41t-80 18q-31 0-60.5-13.5t-55.5-36-48.5-51-38.5-58.5z" horiz-adv-x="1192" unicode="&#x7e;"/><glyph d="M295 545q0-180 48.5-310.5t128-215 180.5-125 206-40.5 206 40.5 180.5 125 128 215 48.5 310.5-48.5 310.5-128 215-180.5 125-206 40.5-206-40.5-180.5-125-128-215-48.5-310.5zM150 545q0 145 28 263.5t77.5 211.5 116.5 161 146 112.5 165.5 66 174.5 21.5 174.5-21.5 165.5-66 146-112.5 116.5-161 77.5-211.5 28-263.5-28-263.5-77.5-211.5-116.5-161-146-112.5-165.5-66-174.5-21.5-174.5 21.5-165.5 66-146 112.5-116.5 161-77.5 211.5-28 263.5zM1197 285q-37-58-73-97.5t-76.5-63.5-89-34.5-110.5-10.5q-68 0-133 27t-116 84-82 145-31 210q0 121 31 209t82 145 116 84.5 133 27.5q62 0 110.5-10.5t89-34.5 76.5-63.5 73-97.5l-122-78q-25 39-49 65.5t-50.5 43-57.5 24-70 7.5q-41 0-80-19t-69.5-58-49.5-100-19-145 19-145 49.5-100 69.5-58 80-19q39 0 70 7t57.5 23.5 50.5 43.5 49 66z" horiz-adv-x="1716" unicode="&#xa9;"/><glyph d="M757 1094l-418-546 422-548h-189l-422 548 420 546h187zM1161 1094l-418-546 422-548h-189l-422 548 420 546h187z" horiz-adv-x="1315" unicode="&#xab;"/><glyph d="M749 500h-575v150h575v-150z" horiz-adv-x="923" unicode="&#xad;"/><glyph d="M150 545q0 145 28 263.5t77.5 211.5 116.5 161 146 112.5 165.5 66 174.5 21.5 174.5-21.5 165.5-66 146-112.5 116.5-161 77.5-211.5 28-263.5-28-263.5-77.5-211.5-116.5-161-146-112.5-165.5-66-174.5-21.5-174.5 21.5-165.5 66-146 112.5-116.5 161-77.5 211.5-28 263.5zM295 545q0-180 48.5-310.5t128-215 180.5-125 206-40.5 206 40.5 180.5 125 128 215 48.5 310.5-48.5 310.5-128 215-180.5 125-206 40.5-206-40.5-180.5-125-128-215-48.5-310.5zM711 166h-144v834h263q49 0 97-13.5t85.5-43.5 61-77.5 23.5-114.5q0-42-6.5-73.5t-21.5-56-40.5-43-62.5-34.5q42-25 69.5-54t46-61 32-65.5 27-67.5 31-67 44.5-63h-165q-19 31-36.5 68.5t-36.5 75-41 73.5-49.5 63.5-62 44-79.5 16.5q-17 0-35-3v-338zM711 646q61 0 106.5 3t75.5 14 45 31.5 15 56.5q0 31-10 51.5t-27 32.5-39 16.5-47 4.5h-119v-210z" horiz-adv-x="1716" unicode="&#xae;"/><glyph d="M713 922q0-54-18.5-101.5t-52-83.5-80.5-57-103-21q-53 0-98.5 20.5t-79 56-53 83.5-19.5 103q0 52 18.5 99.5t51.5 84 79 58.5 101 22q53 0 99-20.5t80.5-56 54.5-83.5 20-104zM573 922q0 26-9 49t-24.5 39.5-36 26-44.5 9.5-44.5-10-35-27.5-22.5-40-8-46.5q0-26 8.5-48.5t23.5-39 35-26 43-9.5q25 0 46 10t36 26.5 23.5 39 8.5 47.5z" unicode="&#xb0;"/><glyph d="M100 1343q36 25 76 44 35 17 79 31t92 14q50 0 94.5-15t77.5-44 52-71.5 19-97.5q0-40-16-74.5t-43.5-65-64.5-56-80-47.5q-25-13-50.5-27t-45.5-29-33-32-13-35v-15h347v-133h-456q-12 42-19 79t-7 69q0 41 17 75t47 63 70 54 85 48q56 28 93.5 59.5t37.5 66.5q0 48-32.5 73t-79.5 25q-32 0-62-10t-54-22q-28-14-53-31z" horiz-adv-x="722" unicode="&#xb2;"/><glyph d="M285 1126q18 6 49 12.5t61 17 52 26.5 22 41q0 31-29 54.5t-81 23.5q-32 0-61.5-8.5t-52.5-18.5q-27-12-50-27l-60 117q31 18 67 33 31 13 71 23.5t86 10.5q57 0 101.5-17.5t75.5-46 47-66.5 16-78q0-46-19-79.5t-48-56.5q18-14 35-31t30-39.5 21-50 8-60.5q0-59-20.5-101.5t-56-70.5-83-41.5-100.5-13.5q-55 0-102.5 14t-83.5 31q-42 20-77 46l75 106q25-19 55-33 26-13 60-23t73-10q27 0 50.5 5.5t41 17.5 28 30 10.5 43q0 23-9 42.5t-22 35.5-28 27-26 18q-25-7-54-12t-52-8z" horiz-adv-x="722" unicode="&#xb3;"/><glyph d="M417 598q0-30-11-56t-29.5-45-44.5-29.5-56-10.5q-28 0-53.5 11.5t-45 30.5-31 44.5-11.5 54.5q0 30 11 55.5t29.5 44.5 44.5 29.5 56 10.5 56-10.5 44.5-29.5 29.5-44.5 11-55.5z" horiz-adv-x="552" unicode="&#xb7;"/><glyph d="M162 1281l208 140h110v-734h-135v560q-27-19-57.5-38.5t-53.5-36.5z" horiz-adv-x="722" unicode="&#xb9;"/><glyph d="M745 1094l420-546-422-548h-189l422 548-418 546h187zM341 1094l420-546-422-548h-189l422 548-418 546h187z" horiz-adv-x="1315" unicode="&#xbb;"/><glyph d="M1289 1341l-857-1355-126 80 857 1355zM1421 144h-91v-145h-135v145h-282q-13 33-16 66t-3 71q0 34 10.5 64.5t27 57.5 37 52 41.5 48q47 53 93.5 109t102.5 121h124v-455h91v-134zM1195 278v246q-19-23-47-53t-54.5-63-47-67-23.5-63h172zM223 1281l208 140h110v-734h-135v560q-27-19-57.5-38.5t-53.5-36.5z" horiz-adv-x="1748" unicode="&#xbc;"/><glyph d="M1289 1341l-857-1355-126 80 857 1355zM1033 652q36 25 76 44 35 17 79 31t92 14q50 0 94.5-15t77.5-44 52-71.5 19-97.5q0-40-16-74.5t-43.5-65-64.5-56-80-47.5q-25-13-50.5-27t-45.5-29-33-32-13-35v-15h347v-133h-456q-12 42-19 79t-7 69q0 41 17 75t47 63 70 54 85 48q56 28 93.5 59.5t37.5 66.5q0 48-32.5 73t-79.5 25q-32 0-62-10t-54-22q-28-14-53-31zM223 1281l208 140h110v-734h-135v560q-27-19-57.5-38.5t-53.5-36.5z" horiz-adv-x="1748" unicode="&#xbd;"/><glyph d="M1289 1341l-857-1355-126 80 857 1355zM1421 144h-91v-145h-135v145h-272q-13 33-21 66t-8 71q0 34 10.5 64.5t27 57.5 37 52 41.5 48q47 53 93.5 109t102.5 121h124v-455h91v-134zM1195 278v246q-19-23-47-53t-54.5-63-47-67-23.5-63h172zM285 1126q18 6 49 12.5t61 17 52 26.5 22 41q0 31-29 54.5t-81 23.5q-32 0-61.5-8.5t-52.5-18.5q-27-12-50-27l-60 117q31 18 67 33 31 13 71 23.5t86 10.5q57 0 101.5-17.5t75.5-46 47-66.5 16-78q0-46-19-79.5t-48-56.5q18-14 35-31t30-39.5 21-50 8-60.5q0-59-20.5-101.5t-56-70.5-83-41.5-100.5-13.5q-55 0-102.5 14t-83.5 31q-42 20-77 46l75 106q25-19 55-33 26-13 60-23t73-10q27 0 50.5 5.5t41 17.5 28 30 10.5 43q0 23-9 42.5t-22 35.5-28 27-26 18q-25-7-54-12t-52-8z" horiz-adv-x="1748" unicode="&#xbe;"/><glyph d="M835 824l-270-270 270-271-104-103-270 270-270-270-104 103 271 271-271 270 104 103 270-270 270 270z" unicode="&#xd7;"/><glyph d="M174 500v150h574v-150h-574zM370 874q0 42 28.5 70t69.5 28q42 0 70-28t28-70q0-41-28-69.5t-70-28.5q-41 0-69.5 28.5t-28.5 69.5zM370 276q0 41 28.5 69.5t69.5 28.5q42 0 70-28.5t28-69.5q0-42-28-70t-70-28q-41 0-69.5 28t-28.5 70z" unicode="&#xf7;"/><glyph d="M620-291v151h151v-151h-151zM620-567v151h151v-151h-151z" horiz-adv-x="0" unicode="&#x5b0;"/><glyph d="M909-291v151h151v-151h-151zM909-567v151h151v-151h-151zM611-291v151h151v-151h-151zM457-567v151h151v-151h-151zM304-291v151h151v-151h-151z" horiz-adv-x="0" unicode="&#x5b1;"/><glyph d="M909-291v151h151v-151h-151zM909-567v151h151v-151h-151zM304-291v151h458v-151h-458z" horiz-adv-x="0" unicode="&#x5b2;"/><glyph d="M909-291v151h151v-151h-151zM909-567v151h151v-151h-151zM304-291v151h458v-151h-174l20-276h-151l20 276h-173z" horiz-adv-x="0" unicode="&#x5b3;"/><glyph d="M620-291v151h150v-151h-150z" horiz-adv-x="0" unicode="&#x5b4;"/><glyph d="M776-291v151h151v-151h-151zM469-291v151h151v-151h-151z" horiz-adv-x="0" unicode="&#x5b5;"/><glyph d="M775-291v151h151v-151h-151zM622-567v151h150v-151h-150zM468-291v151h151v-151h-151z" horiz-adv-x="0" unicode="&#x5b6;"/><glyph d="M467-291v151h458v-151h-458z" horiz-adv-x="0" unicode="&#x5b7;"/><glyph d="M469-291v151h458v-151h-174l20-276h-151l20 276h-173z" horiz-adv-x="0" unicode="&#x5b8;"/><glyph d="M-110 1205v151h150v-151h-150z" horiz-adv-x="0" unicode="&#x5b9;"/><glyph d="M-110 1205v151h150v-151h-150z" horiz-adv-x="0" unicode="&#x5ba;"/><glyph d="M997-673v151h151v-151h-151zM807-480v151h151v-151h-151zM626-291v151h151v-151h-151z" horiz-adv-x="0" unicode="&#x5bb;"/><glyph d="M541 462v150h150v-150h-150z" horiz-adv-x="0" unicode="&#x5bc;"/><glyph d="M608 928h-498v166h498v-166z" horiz-adv-x="718" unicode="&#x5be;"/><glyph d="M345 1320v-1548h-150v1548h150z" horiz-adv-x="540" unicode="&#x5c0;"/><glyph d="M-110 1205v151h150v-151h-150z" horiz-adv-x="0" unicode="&#x5c1;"/><glyph d="M-110 1205v151h150v-151h-150z" horiz-adv-x="0" unicode="&#x5c2;"/><glyph d="M469-291v151h458v-151h-174l20-276h-151l20 276h-173z" horiz-adv-x="0" unicode="&#x5c7;"/><glyph d="M293 1123l128-329q63-44 120.5-83t120.5-82l194 494 151-54-206-541q75-63 120-130.5t68.5-135 30.5-134 7-128.5h-161q0 62-8 120t-31.5 112.5-65.5 105-109 97.5l-278 195q-21-39-34.5-72.5t-22-76.5-11.5-103.5-3-153.5v-224h-166v224q0 77 3.5 136t10 106 16.5 84 23.5 70 30.5 65 37 68l-123 325z" horiz-adv-x="1147" unicode="&#x5d0;"/><glyph d="M115 166h543v762h-540v166h706v-928h144v-166h-853v166z" horiz-adv-x="1030" unicode="&#x5d1;"/><glyph d="M181 1094h404q0-101 1.5-175.5t5.5-135.5 12-115.5 22-117.5q14-66 25.5-127.5t20-126 13.5-137 5-159.5h-166q0 90-3 154t-9 113.5-14 90.5-18 85q-70-25-112-64t-64.5-93-29.5-125-7-161h-166q0 112 15 208t53 173q39 78 107 132.5t174 84.5q-8 40-13 77t-8.5 75.5-5.5 81.5-3 96h-239v166z" horiz-adv-x="794" unicode="&#x5d2;"/><glyph d="M603 0v928h-523v166h833v-166h-144v-928h-166z" horiz-adv-x="1008" unicode="&#x5d3;"/><glyph d="M165 928v166h821v-1094h-166v928h-655zM337 619v-619h-166v619h166z" horiz-adv-x="1151" unicode="&#x5d4;"/><glyph d="M277 0v928h-166v166h332v-1094h-166z" horiz-adv-x="593" unicode="&#x5d5;"/><glyph d="M254 0q0 86-3.5 146t-9 106.5-11.5 84-11.5 77.5-9 88.5-3.5 115.5q0 92 25.5 170t83.5 140h-249v166h529v-166q-49 0-90.5-22.5t-72-63.5-47.5-98-17-126q0-57 4-104t10.5-90 13.5-85.5 13.5-92 10.5-109.5 4-137h-170z" horiz-adv-x="658" unicode="&#x5d6;"/><glyph d="M675 1094q69 0 129.5-26t105.5-71 71-105.5 26-129.5v-762h-166v762q0 34-13 64.5t-35.5 53-53 35.5-64.5 13h-359v-928h-166v1094h525z" horiz-adv-x="1141" unicode="&#x5d7;"/><glyph d="M465 859q23 53 49.5 98.5t61 79 80.5 52.5 108 19q53 0 107-19.5t97-68.5 70-132.5 27-210.5q0-146-38.5-272t-114-219-186-146.5-254.5-53.5q-100 0-186 17t-156 40v1051h166v-925q18-5 41-9t47-7 47-4.5 41-1.5q117 0 199 43t134 116 75.5 169 23.5 202q0 75-8.5 126t-25.5 83-43.5 46-62.5 14q-31 0-53.5-13t-41-34.5-33.5-50.5-31-61z" horiz-adv-x="1157" unicode="&#x5d8;"/><glyph d="M251 556v372h-156v166h322v-538h-166z" horiz-adv-x="543" unicode="&#x5d9;"/><glyph d="M673 928h-558v166h724v-1414h-166v1248z" horiz-adv-x="1004" unicode="&#x5da;"/><glyph d="M870 619q0-82-5-160t-20.5-146.5-44-126-76-99-117-64.5-166.5-23h-345v166h345q98 0 152 35t79.5 96 30.5 143.5 5 178.5q0 61-3.5 108t-9.5 84-13.5 65.5-14.5 51.5h-573v166h685q24-39 41-90.5t28-112.5 16.5-130 5.5-142z" horiz-adv-x="972" unicode="&#x5db;"/><glyph d="M805 1094q14-16 30.5-39.5t30-56.5 22.5-77 9-102q0-80-30-149.5t-73.5-128.5-92.5-109.5-86-92.5q-32-37-58.5-73.5t-45.5-77-29-86.5-10-102h-166q0 78 13 140t38 113.5 61 97 82 91.5q33 33 73.5 77t76.5 93.5 60.5 102.5 24.5 104q0 26-8 57t-25 52h-607v493h166v-327h544z" horiz-adv-x="977" unicode="&#x5dc;"/><glyph d="M145 1094h535q69 0 129.5-26t105.5-71 71-105.5 26-129.5v-762h-867v1094zM311 166h535v596q0 34-13 64.5t-35.5 53-53 35.5-64.5 13h-369v-762z" horiz-adv-x="1122" unicode="&#x5dd;"/><glyph d="M743 946q-39 0-87-12t-93.5-47.5-84-100-57.5-170.5l-114-616h-166l54 296q22 119 39.5 205.5t17.5 153.5q0 60-9.5 110t-26 95.5-39.5 91-50 96.5l145 75q13-22 28.5-50t30-61.5 26.5-71 18-77.5q38 72 79 119.5t86 75 95.5 39 107.5 11.5q69 0 129.5-28.5t105.5-76 71-110 26-131.5v-762h-507v166h341v596q0 34-13 67t-35.5 59-53 42-64.5 16z" horiz-adv-x="1220" unicode="&#x5de;"/><glyph d="M278-320v1248h-158v166h324v-1414h-166z" horiz-adv-x="593" unicode="&#x5df;"/><glyph d="M140 1094h394v-116t1-84 2-64.5 3.5-56 5.5-58 7-71.5q7-67 13-118t10.5-96.5 7-89.5 2.5-98q0-40-1-73t-3.5-62-6.5-55-11-52h-464v166h314q5 19 5.5 38.5t.5 37.5q0 51-2 93t-5 84-8.5 87.5-13.5 102.5q-7 51-11.5 88t-7.5 71.5-4.5 71.5-1.5 88h-226v166z" horiz-adv-x="699" unicode="&#x5e0;"/><glyph d="M125 1094h570q99 0 163-40t101.5-106.5 52.5-153 15-179.5q0-82-9.5-160.5t-31-148.5-57.5-129-88.5-101.5-124-66-164.5-23.5q-99 0-169 28.5t-117.5 75.5-75.5 107.5-42.5 123.5-18.5 124-4 110v539zM291 555q0-79 11-152.5t40.5-130 80-90.5 129.5-34q88 0 148 32t96.5 92 52.5 146.5 16 196.5q0 50-4 105.5t-20.5 101.5-50.5 76-95 30h-404v-373z" horiz-adv-x="1107" unicode="&#x5e1;"/><glyph d="M100 0v166h313l-302 928h172l288-908q51 19 86.5 56t57.5 91 32 124.5 10 157.5v479h161v-479q0-82-9.5-159.5t-31-146-57.5-125.5-88.5-98-124-63.5-164.5-22.5h-343z" horiz-adv-x="1038" unicode="&#x5e2;"/><glyph d="M609 1094q64 0 120-24t98-66 66-98 24-120v-1106h-166v1106q0 29-11 55t-30.5 45.5-45.5 30.5-55 11h-327q-13-15-23-36-9-18-16-44t-7-58q0-45 22-77t57-54.5 78.5-36.5 85.5-24l-36-156q-64 15-129.5 38t-118.5 63-86.5 100-33.5 147q0 66 17 121.5t38 96.5q24 48 55 86h424z" horiz-adv-x="1042" unicode="&#x5e3;"/><glyph d="M681 1094q64 0 120-24t98-66 66-98 24-120v-786h-812v166h646v620q0 29-11 55t-30.5 45.5-45.5 30.5-55 11h-347q-13-15-23-36-9-18-16-44t-7-58q0-45 22-77t57-54.5 78.5-36.5 85.5-24l-36-156q-64 15-129.5 38t-118.5 63-86.5 100-33.5 147q0 66 17 121.5t38 96.5q24 48 55 86h444z" horiz-adv-x="1114" unicode="&#x5e4;"/><glyph d="M311 480q34 12 72.5 27.5t77.5 35 75.5 43.5 66.5 52q38 36 62.5 77.5t39 95 20 122.5 5.5 161h166q0-113-8-197.5t-28.5-150.5-55.5-120-89-105q-46-44-100-76.5t-108-56.5-105-41-91-29v-638h-166v1414h166v-614z" horiz-adv-x="1021" unicode="&#x5e5;"/><glyph d="M789 166q2 5 3.5 13.5t1.5 14.5q0 31-7.5 61.5t-29 62-61.5 65-105 69.5q-31 17-70 36.5t-81.5 40-85 42-81.5 43.5q-68 39-101.5 103.5t-33.5 168.5v208h166v-208q0-55 18.5-88t54.5-57.5 88-47 120-56.5l191 457h175l-224-537q79-50 124.5-100t69-96.5 30-88.5 6.5-78q0-60-5.5-111.5t-14.5-82.5h-777v166h629z" horiz-adv-x="1087" unicode="&#x5e6;"/><glyph d="M306 677v-997h-166v997h166zM792 619q0 61-3.5 108t-9.5 84-13.5 65.5-14.5 51.5h-645v166h757q24-39 41-90.5t28-112.5 16.5-130 5.5-142q0-69-23-154.5t-73-172-129.5-167-193.5-139.5l-74 144q88 46 151 106.5t103 126.5 58.5 132.5 18.5 123.5z" horiz-adv-x="1039" unicode="&#x5e7;"/><glyph d="M85 1094h413q69 0 129.5-26t105.5-71 71-105.5 26-129.5v-762h-166v762q0 34-13 64.5t-35.5 53-53 35.5-64.5 13h-413v166z" horiz-adv-x="970" unicode="&#x5e8;"/><glyph d="M142 1094h166v-556q45 18 90 45t77 59q51 51 76 119.5t25 165.5v167h166v-167q0-135-40-230.5t-113-168.5q-28-28-65-50.5t-76-39.5-75.5-29-64.5-19v-217q33-9 84-18t129-9q39 0 83 6.5t88.5 22.5 87.5 43.5 81 68.5q27 30 54 70.5t48 96 34 126.5 13 163v351h166v-351q0-107-18-194t-46-157-63.5-122.5-69.5-90.5q-50-55-113-92t-129-59.5-129.5-32-113.5-9.5q-78 0-142 9.5t-111 20.5q-55 13-99 31v1047z" horiz-adv-x="1266" unicode="&#x5e9;"/><glyph d="M80 166h181q-3 47-7.5 83.5t-9 69-9.5 63-8.5 65-6 76-2.5 95.5q0 46 7 90.5t21.5 85 37 74.5 54.5 60h-195v166h587q69 0 129.5-26t105.5-71 71-105.5 26-129.5v-762h-166v762q0 34-13 64.5t-35.5 53-53 35.5-64.5 13h-123q-59 0-101.5-22.5t-70.5-63.5-41.5-98-13.5-126q0-57 4-104t10.5-90 13.5-85.5 13.5-92 10.5-109.5 4-137h-356v166z" horiz-adv-x="1167" unicode="&#x5ea;"/><glyph d="M80 827v493h150v-493h-150z" horiz-adv-x="310" unicode="&#x5f3;"/><glyph d="M373 827v493h150v-493h-150zM95 827v493h150v-493h-150z" horiz-adv-x="618" unicode="&#x5f4;"/><glyph horiz-adv-x="738" unicode="&#x2000;"/><glyph horiz-adv-x="1477" unicode="&#x2001;"/><glyph horiz-adv-x="738" unicode="&#x2002;"/><glyph horiz-adv-x="1477" unicode="&#x2003;"/><glyph horiz-adv-x="492" unicode="&#x2004;"/><glyph horiz-adv-x="369" unicode="&#x2005;"/><glyph horiz-adv-x="246" unicode="&#x2006;"/><glyph horiz-adv-x="246" unicode="&#x2007;"/><glyph horiz-adv-x="184" unicode="&#x2008;"/><glyph horiz-adv-x="295" unicode="&#x2009;"/><glyph horiz-adv-x="82" unicode="&#x200a;"/><glyph d="M749 500h-575v150h575v-150z" horiz-adv-x="923" unicode="&#x2010;"/><glyph d="M749 500h-575v150h575v-150z" horiz-adv-x="923" unicode="&#x2011;"/><glyph d="M749 500h-575v150h575v-150z" horiz-adv-x="923" unicode="&#x2012;"/><glyph d="M1120 518h-960v166h960v-166z" horiz-adv-x="1280" unicode="&#x2013;"/><glyph d="M1514 518h-1354v166h1354v-166z" horiz-adv-x="1676" unicode="&#x2014;"/><glyph d="M80 827v493h150v-493h-150z" horiz-adv-x="310" unicode="&#x2018;"/><glyph d="M80 827v493h150v-493h-150z" horiz-adv-x="310" unicode="&#x2019;"/><glyph d="M40-320q8 21 19.5 56t23 78 23 90.5 20.5 94.5 14.5 90 5.5 77h166q0-34-7.5-77.5t-19.5-90-27.5-94.5-32.5-90.5-33.5-77.5-29.5-56h-122z" horiz-adv-x="394" unicode="&#x201a;"/><glyph d="M373 827v493h150v-493h-150zM95 827v493h150v-493h-150z" horiz-adv-x="618" unicode="&#x201c;"/><glyph d="M373 827v493h150v-493h-150zM95 827v493h150v-493h-150z" horiz-adv-x="618" unicode="&#x201d;"/><glyph d="M373 827v493h150v-493h-150zM95 827v493h150v-493h-150z" horiz-adv-x="618" unicode="&#x201e;"/><glyph d="M431 598q0-32-11.5-59.5t-32-48-48.5-32.5-60-12-59 12-47 32.5-31.5 48-11.5 59.5q0 31 11.5 58.5t32 47.5 47.5 32 58 12q30 0 57.5-11.5t48.5-31.5 33.5-47.5 12.5-59.5z" horiz-adv-x="561" unicode="&#x2022;"/><glyph horiz-adv-x="295" unicode="&#x202f;"/><glyph d="M140 814q0 49 10 101t34 95 63.5 70.5 97.5 27.5q56 0 109-12t104-26.5 100-26.5 98-12q20 0 49.5 2.5t60 11 57.5 23.5 42 40l126-80-659-1042-126 80 545 862q-12-6-37-12.5t-59-6.5q-37 0-68 6.5t-58 15-51.5 16-46.5 10.5q11-34 15-72t4-71q0-49-10.5-100.5t-34.5-94-63.5-70-98.5-27.5q-58 0-97 27.5t-62.5 70-33.5 94-10 100.5zM852 278q0 49 10 101t34 95 63.5 70.5 97.5 27.5 97.5-27.5 63.5-70.5 34-95 10-101-10.5-100.5-34.5-94-63.5-70-98.5-27.5q-58 0-97 27.5t-62.5 70-33.5 94-10 100.5zM987 278q0-26 3.5-53.5t11-50.5 20.5-38 33-15q21 0 34.5 15t22 38 12 50.5 3.5 53.5-3.5 54-12 51.5-22 38.5-32.5 15q-20 0-33.5-15t-21.5-38.5-11.5-51.5-3.5-54zM275 814q0-26 3.5-53.5t11-50.5 20.5-38 33-15q21 0 34.5 15t22 38 12 50.5 3.5 53.5-3.5 54-12 51.5-22 38.5-32.5 15q-20 0-33.5-15t-21.5-38.5-11.5-51.5-3.5-54zM1365 278q0 49 10 101t34 95 63.5 70.5 97.5 27.5 97.5-27.5 63.5-70.5 34-95 10-101-10.5-100.5-34.5-94-63.5-70-98.5-27.5q-58 0-97 27.5t-62.5 70-33.5 94-10 100.5zM1500 278q0-26 3.5-53.5t11-50.5 20.5-38 33-15q21 0 34.5 15t22 38 12 50.5 3.5 53.5-3.5 54-12 51.5-22 38.5-32.5 15q-20 0-33.5-15t-21.5-38.5-11.5-51.5-3.5-54z" horiz-adv-x="1944" unicode="&#x2030;"/><glyph d="M221-27l698 1504 164-78-701-1503z" horiz-adv-x="1304" unicode="&#x2044;"/><glyph horiz-adv-x="369" unicode="&#x205f;"/><glyph d="M772 1094q69 0 129.5-26t105.5-71 71-105.5 26-129.5v-362h-166v362q0 34-13 64.5t-35.5 53-53 35.5-64.5 13h-456v-928h-166v1094h622zM1534 1094v-332q0-111-9.5-198t-26.5-157-42-126-56-105q-24-38-64.5-72.5t-95.5-60.5-123-41.5-146-15.5q-100 0-179 9.5t-135 20.5q-65 13-114 30v716h166v-588q45-10 109.5-18t152.5-8q55 0 101 11t83 28.5 64 40 44 45.5q29 39 49 84t32.5 102.5 18 131.5 5.5 171v332h166z" horiz-adv-x="1624" unicode="&#x20aa;"/><glyph d="M380 547q0-14 .5-28.5t1.5-29.5h360v-150h-330q15-42 39.5-80t59.5-66.5 83-45 110-16.5q55 0 98 14t79 40.5 68 66 65 90.5l122-78q-43-67-86-119t-93-87-111.5-53.5-141.5-18.5q-104 0-180 29.5t-129 78.5-85.5 113-49.5 132h-130v150h107q-1 15-1.5 29.5t-.5 28.5q0 17 .5 33.5t1.5 34.5h-107v150h132q18 66 51 128t86 110 128 76.5 177 28.5q80 0 141.5-18.5t111.5-53.5 93-87 86-119l-122-78q-33 51-65 90.5t-68 66-79 40.5-98 14q-60 0-107-16t-82-43-59-63-40-76h326v-150h-359q-3-36-3-68z" horiz-adv-x="1266" unicode="&#x20ac;"/><glyph d="M1557 646v601l-255-255-255 255v-601h-144v775h174l225-225 226 225h173v-775h-144zM803 1277h-255v-631h-144v631h-254v144h653v-144z" horiz-adv-x="1851" unicode="&#x2122;"/><glyph d="M888 500h-828v150h828v-150z" horiz-adv-x="948" unicode="&#x2212;"/><glyph d="M0 0v0 0 0 0z" horiz-adv-x="500" unicode="&#xe000;"/><glyph d="M142 1094h166v-556q45 18 90 45t77 59q51 51 76 119.5t25 165.5v167h166v-167q0-135-40-230.5t-113-168.5q-28-28-65-50.5t-76-39.5-75.5-29-64.5-19v-217q33-9 84-18t129-9q39 0 83 6.5t88.5 22.5 87.5 43.5 81 68.5q27 30 54 70.5t48 96 34 126.5 13 163v351h166v-351q0-107-18-194t-46-157-63.5-122.5-69.5-90.5q-50-55-113-92t-129-59.5-129.5-32-113.5-9.5q-78 0-142 9.5t-111 20.5q-55 13-99 31v1047zM1015 1205v151h150v-151h-150z" horiz-adv-x="1266" unicode="&#xfb2a;"/><glyph d="M142 1094h166v-556q45 18 90 45t77 59q51 51 76 119.5t25 165.5v167h166v-167q0-135-40-230.5t-113-168.5q-28-28-65-50.5t-76-39.5-75.5-29-64.5-19v-217q33-9 84-18t129-9q39 0 83 6.5t88.5 22.5 87.5 43.5 81 68.5q27 30 54 70.5t48 96 34 126.5 13 163v351h166v-351q0-107-18-194t-46-157-63.5-122.5-69.5-90.5q-50-55-113-92t-129-59.5-129.5-32-113.5-9.5q-78 0-142 9.5t-111 20.5q-55 13-99 31v1047zM149 1205v151h150v-151h-150z" horiz-adv-x="1266" unicode="&#xfb2b;"/><glyph d="M142 1094h166v-556q45 18 90 45t77 59q51 51 76 119.5t25 165.5v167h166v-167q0-135-40-230.5t-113-168.5q-28-28-65-50.5t-76-39.5-75.5-29-64.5-19v-217q33-9 84-18t129-9q39 0 83 6.5t88.5 22.5 87.5 43.5 81 68.5q27 30 54 70.5t48 96 34 126.5 13 163v351h166v-351q0-107-18-194t-46-157-63.5-122.5-69.5-90.5q-50-55-113-92t-129-59.5-129.5-32-113.5-9.5q-78 0-142 9.5t-111 20.5q-55 13-99 31v1047zM1015 1205v151h150v-151h-150zM630 305v150h150v-150h-150z" horiz-adv-x="1266" unicode="&#xfb2c;"/><glyph d="M142 1094h166v-556q45 18 90 45t77 59q51 51 76 119.5t25 165.5v167h166v-167q0-135-40-230.5t-113-168.5q-28-28-65-50.5t-76-39.5-75.5-29-64.5-19v-217q33-9 84-18t129-9q39 0 83 6.5t88.5 22.5 87.5 43.5 81 68.5q27 30 54 70.5t48 96 34 126.5 13 163v351h166v-351q0-107-18-194t-46-157-63.5-122.5-69.5-90.5q-50-55-113-92t-129-59.5-129.5-32-113.5-9.5q-78 0-142 9.5t-111 20.5q-55 13-99 31v1047zM149 1205v151h150v-151h-150zM630 305v150h150v-150h-150z" horiz-adv-x="1266" unicode="&#xfb2d;"/><glyph d="M293 1123l128-329q63-44 120.5-83t120.5-82l194 494 151-54-206-541q75-63 120-130.5t68.5-135 30.5-134 7-128.5h-161q0 62-8 120t-31.5 112.5-65.5 105-109 97.5l-278 195q-21-39-34.5-72.5t-22-76.5-11.5-103.5-3-153.5v-224h-166v224q0 77 3.5 136t10 106 16.5 84 23.5 70 30.5 65 37 68l-123 325zM357-291v151h458v-151h-458z" horiz-adv-x="1147" unicode="&#xfb2e;"/><glyph d="M293 1123l128-329q63-44 120.5-83t120.5-82l194 494 151-54-206-541q75-63 120-130.5t68.5-135 30.5-134 7-128.5h-161q0 62-8 120t-31.5 112.5-65.5 105-109 97.5l-278 195q-21-39-34.5-72.5t-22-76.5-11.5-103.5-3-153.5v-224h-166v224q0 77 3.5 136t10 106 16.5 84 23.5 70 30.5 65 37 68l-123 325zM349-291v151h458v-151h-174l20-276h-151l20 276h-173z" horiz-adv-x="1147" unicode="&#xfb2f;"/><glyph d="M293 1123l128-329q63-44 120.5-83t120.5-82l194 494 151-54-206-541q75-63 120-130.5t68.5-135 30.5-134 7-128.5h-161q0 62-8 120t-31.5 112.5-65.5 105-109 97.5l-278 195q-21-39-34.5-72.5t-22-76.5-11.5-103.5-3-153.5v-224h-166v224q0 77 3.5 136t10 106 16.5 84 23.5 70 30.5 65 37 68l-123 325zM475 167v150h150v-150h-150z" horiz-adv-x="1147" unicode="&#xfb30;"/><glyph d="M115 166h543v762h-540v166h706v-928h144v-166h-853v166zM311 462v150h150v-150h-150z" horiz-adv-x="1030" unicode="&#xfb31;"/><glyph d="M181 1094h404q0-101 1.5-175.5t5.5-135.5 12-115.5 22-117.5q14-66 25.5-127.5t20-126 13.5-137 5-159.5h-166q0 90-3 154t-9 113.5-14 90.5-18 85q-70-25-112-64t-64.5-93-29.5-125-7-161h-166q0 112 15 208t53 173q39 78 107 132.5t174 84.5q-8 40-13 77t-8.5 75.5-5.5 81.5-3 96h-239v166zM123 657v150h150v-150h-150z" horiz-adv-x="794" unicode="&#xfb32;"/><glyph d="M603 0v928h-523v166h833v-166h-144v-928h-166zM254 462v150h150v-150h-150z" horiz-adv-x="1008" unicode="&#xfb33;"/><glyph d="M165 928v166h821v-1094h-166v928h-655zM337 619v-619h-166v619h166zM492 559v150h150v-150h-150z" horiz-adv-x="1151" unicode="&#xfb34;"/><glyph d="M277 0v928h-166v166h332v-1094h-166zM34 462v150h150v-150h-150z" horiz-adv-x="593" unicode="&#xfb35;"/><glyph d="M254 0q0 86-3.5 146t-9 106.5-11.5 84-11.5 77.5-9 88.5-3.5 115.5q0 92 25.5 170t83.5 140h-249v166h529v-166q-49 0-90.5-22.5t-72-63.5-47.5-98-17-126q0-57 4-104t10.5-90 13.5-85.5 13.5-92 10.5-109.5 4-137h-170zM-19 462v150h150v-150h-150z" horiz-adv-x="658" unicode="&#xfb36;"/><glyph d="M465 859q23 53 49.5 98.5t61 79 80.5 52.5 108 19q53 0 107-19.5t97-68.5 70-132.5 27-210.5q0-146-38.5-272t-114-219-186-146.5-254.5-53.5q-100 0-186 17t-156 40v1051h166v-925q18-5 41-9t47-7 47-4.5 41-1.5q117 0 199 43t134 116 75.5 169 23.5 202q0 75-8.5 126t-25.5 83-43.5 46-62.5 14q-31 0-53.5-13t-41-34.5-33.5-50.5-31-61zM511 462v150h150v-150h-150z" horiz-adv-x="1157" unicode="&#xfb38;"/><glyph d="M251 556v372h-156v166h322v-538h-166zM23 657v150h150v-150h-150z" horiz-adv-x="543" unicode="&#xfb39;"/><glyph d="M673 928h-558v166h724v-1414h-166v1248zM329 462v150h150v-150h-150z" horiz-adv-x="1004" unicode="&#xfb3a;"/><glyph d="M870 619q0-82-5-160t-20.5-146.5-44-126-76-99-117-64.5-166.5-23h-345v166h345q98 0 152 35t79.5 96 30.5 143.5 5 178.5q0 61-3.5 108t-9.5 84-13.5 65.5-14.5 51.5h-573v166h685q24-39 41-90.5t28-112.5 16.5-130 5.5-142zM332 482v150h150v-150h-150z" horiz-adv-x="972" unicode="&#xfb3b;"/><glyph d="M805 1094q14-16 30.5-39.5t30-56.5 22.5-77 9-102q0-80-30-149.5t-73.5-128.5-92.5-109.5-86-92.5q-32-37-58.5-73.5t-45.5-77-29-86.5-10-102h-166q0 78 13 140t38 113.5 61 97 82 91.5q33 33 73.5 77t76.5 93.5 60.5 102.5 24.5 104q0 26-8 57t-25 52h-607v493h166v-327h544zM298 599v150h150v-150h-150z" horiz-adv-x="977" unicode="&#xfb3c;"/><glyph d="M743 946q-39 0-87-12t-93.5-47.5-84-100-57.5-170.5l-114-616h-166l54 296q22 119 39.5 205.5t17.5 153.5q0 60-9.5 110t-26 95.5-39.5 91-50 96.5l145 75q13-22 28.5-50t30-61.5 26.5-71 18-77.5q38 72 79 119.5t86 75 95.5 39 107.5 11.5q69 0 129.5-28.5t105.5-76 71-110 26-131.5v-762h-507v166h341v596q0 34-13 67t-35.5 59-53 42-64.5 16zM596 462v150h150v-150h-150z" horiz-adv-x="1220" unicode="&#xfb3e;"/><glyph d="M140 1094h394v-116t1-84 2-64.5 3.5-56 5.5-58 7-71.5q7-67 13-118t10.5-96.5 7-89.5 2.5-98q0-40-1-73t-3.5-62-6.5-55-11-52h-464v166h314q5 19 5.5 38.5t.5 37.5q0 51-2 93t-5 84-8.5 87.5-13.5 102.5q-7 51-11.5 88t-7.5 71.5-4.5 71.5-1.5 88h-226v166zM122 482v150h150v-150h-150z" horiz-adv-x="699" unicode="&#xfb40;"/><glyph d="M125 1094h570q99 0 163-40t101.5-106.5 52.5-153 15-179.5q0-82-9.5-160.5t-31-148.5-57.5-129-88.5-101.5-124-66-164.5-23.5q-99 0-169 28.5t-117.5 75.5-75.5 107.5-42.5 123.5-18.5 124-4 110v539zM291 555q0-79 11-152.5t40.5-130 80-90.5 129.5-34q88 0 148 32t96.5 92 52.5 146.5 16 196.5q0 50-4 105.5t-20.5 101.5-50.5 76-95 30h-404v-373zM501 462v150h150v-150h-150z" horiz-adv-x="1107" unicode="&#xfb41;"/><glyph d="M609 1094q64 0 120-24t98-66 66-98 24-120v-1106h-166v1106q0 29-11 55t-30.5 45.5-45.5 30.5-55 11h-327q-13-15-23-36-9-18-16-44t-7-58q0-45 22-77t57-54.5 78.5-36.5 85.5-24l-36-156q-64 15-129.5 38t-118.5 63-86.5 100-33.5 147q0 66 17 121.5t38 96.5q24 48 55 86h424zM430 695v150h150v-150h-150z" horiz-adv-x="1042" unicode="&#xfb43;"/><glyph d="M681 1094q64 0 120-24t98-66 66-98 24-120v-786h-812v166h646v620q0 29-11 55t-30.5 45.5-45.5 30.5-55 11h-347q-13-15-23-36-9-18-16-44t-7-58q0-45 22-77t57-54.5 78.5-36.5 85.5-24l-36-156q-64 15-129.5 38t-118.5 63-86.5 100-33.5 147q0 66 17 121.5t38 96.5q24 48 55 86h444zM486 709v150h150v-150h-150z" horiz-adv-x="1114" unicode="&#xfb44;"/><glyph d="M789 166q2 5 3.5 13.5t1.5 14.5q0 31-7.5 61.5t-29 62-61.5 65-105 69.5q-31 17-70 36.5t-81.5 40-85 42-81.5 43.5q-68 39-101.5 103.5t-33.5 168.5v208h166v-208q0-55 18.5-88t54.5-57.5 88-47 120-56.5l191 457h175l-224-537q79-50 124.5-100t69-96.5 30-88.5 6.5-78q0-60-5.5-111.5t-14.5-82.5h-777v166h629zM428 856v150h150v-150h-150z" horiz-adv-x="1087" unicode="&#xfb46;"/><glyph d="M306 677v-997h-166v997h166zM792 619q0 61-3.5 108t-9.5 84-13.5 65.5-14.5 51.5h-645v166h757q24-39 41-90.5t28-112.5 16.5-130 5.5-142q0-69-23-154.5t-73-172-129.5-167-193.5-139.5l-74 144q88 46 151 106.5t103 126.5 58.5 132.5 18.5 123.5zM466 600v150h150v-150h-150z" horiz-adv-x="1039" unicode="&#xfb47;"/><glyph d="M85 1094h413q69 0 129.5-26t105.5-71 71-105.5 26-129.5v-762h-166v762q0 34-13 64.5t-35.5 53-53 35.5-64.5 13h-413v166zM294 462v150h150v-150h-150z" horiz-adv-x="970" unicode="&#xfb48;"/><glyph d="M142 1094h166v-556q45 18 90 45t77 59q51 51 76 119.5t25 165.5v167h166v-167q0-135-40-230.5t-113-168.5q-28-28-65-50.5t-76-39.5-75.5-29-64.5-19v-217q33-9 84-18t129-9q39 0 83 6.5t88.5 22.5 87.5 43.5 81 68.5q27 30 54 70.5t48 96 34 126.5 13 163v351h166v-351q0-107-18-194t-46-157-63.5-122.5-69.5-90.5q-50-55-113-92t-129-59.5-129.5-32-113.5-9.5q-78 0-142 9.5t-111 20.5q-55 13-99 31v1047zM630 305v150h150v-150h-150z" horiz-adv-x="1266" unicode="&#xfb49;"/><glyph d="M80 166h181q-3 47-7.5 83.5t-9 69-9.5 63-8.5 65-6 76-2.5 95.5q0 46 7 90.5t21.5 85 37 74.5 54.5 60h-195v166h587q69 0 129.5-26t105.5-71 71-105.5 26-129.5v-762h-166v762q0 34-13 64.5t-35.5 53-53 35.5-64.5 13h-123q-59 0-101.5-22.5t-70.5-63.5-41.5-98-13.5-126q0-57 4-104t10.5-90 13.5-85.5 13.5-92 10.5-109.5 4-137h-356v166zM556 462v150h150v-150h-150z" horiz-adv-x="1167" unicode="&#xfb4a;"/><glyph d="M277 0v928h-166v166h332v-1094h-166zM213 1205v151h150v-151h-150z" horiz-adv-x="593" unicode="&#xfb4b;"/></font>
</defs>
</svg>
