<svg xmlns="http://www.w3.org/2000/svg"><defs><font horiz-adv-x="1128"><font-face ascent="1638" descent="-410" units-per-em="2048"/><missing-glyph horiz-adv-x="532"/><glyph horiz-adv-x="2048"/><glyph horiz-adv-x="2048"/><glyph horiz-adv-x="1044" unicode="&#xd;"/><glyph horiz-adv-x="532" unicode="&#x20;"/><glyph horiz-adv-x="532" unicode="&#x09;"/><glyph horiz-adv-x="532" unicode="&#xa0;"/><glyph d="M186 377l203 1085h119l-260-1085h-62zM80 57q0 56 25 88.5t69 32.5q66 0 66-72 0-54-25.5-88t-67.5-34q-67 0-67 73z" horiz-adv-x="502" unicode="&#x21;"/><glyph d="M309 934h-61l80 528h127zM639 934h-61l79 528h127z" horiz-adv-x="721" unicode="&#x22;"/><glyph d="M508 928h-297l8 80h311l134 454h90l-136-454h365l135 454h86l-135-454h285l-8-80h-302l-118-398h303l-8-79h-320l-133-451h-90l135 451h-360l-134-451h-88l134 451h-283l8 79h299zM838 530l120 398h-362l-121-398h363z" horiz-adv-x="1323" unicode="&#x23;"/><glyph d="M928 467q0-151-111-243.5t-297-102.5l-53-240h-82l51 240q-175 5-295 61v94q65-34 152-53.5t162-19.5l110 512q-107 51-153 91-90 81-90 204 0 156 105.5 250.5t272.5 99.5l41 192h80l-41-192q148-4 277-68l-35-78q-108 61-256 70l-109-514q125-60 172-100 99-79 99-203zM410 1018q0-79 37.5-129t136.5-96l102 491q-133-9-204.5-79.5t-71.5-186.5zM842 461q0 76-48 129.5t-157 97.5l-100-485q143 7 224 74.5t81 183.5z" unicode="&#x24;"/><glyph d="M760 1198q0-174-50-326t-135.5-230.5-197.5-78.5-172 76-60 230.5 51.5 305 137 228.5 194.5 78q232 0 232-283zM319 0h-106l1135 1462h110zM637.5 1353.5q-36.5 53.5-114.5 53.5t-144.5-71.5-107-203.5-40.5-254.5 40.5-181.5 118.5-59 143.5 73 103 205 37.5 258.5-36.5 180zM1520 612q0-174-50-326t-135.5-230.5-197.5-78.5-172 76-60 230.5 51.5 305 137 228.5 199.5 78q227 0 227-283zM1397.5 767.5q-36.5 53.5-115 53.5t-144.5-72-106.5-202-40.5-254 40.5-183 113.5-59q130 0 209.5 167t79.5 386q0 110-36.5 163.5z" horiz-adv-x="1556" unicode="&#x25;"/><glyph d="M444-20q-167 0-267 94-99 94-99 253t99 274.5 325 215.5l-41 67q-78 128-78 251 0 157 100.5 253.5t264.5 96.5q144 0 226.5-76.5t82.5-206.5q0-164-162-282-78-57-256-138l330-463q73 74 136 177t91 186h111q-102-247-285-436l184-246h-123l-131 184q-122-109-243-156.5t-265-47.5zM748 1395q-125 0-194-68t-69-196.5 109-276.5q201 88 279 163 77 75 77 183 0 90-56 142.5t-146 52.5zM176 328q0-118 77.5-191.5t211.5-73.5q108 0 212 43t222 146l-352 493q-166-81-232-135-139-112-139-282z" horiz-adv-x="1331" unicode="&#x26;"/><glyph d="M315 934h-61l80 528h127z" horiz-adv-x="403" unicode="&#x27;"/><glyph d="M250-324q-146 263-146 599.5t121.5 626.5 382.5 560h105q-259-276-384.5-568t-125.5-614 127-604h-80z" horiz-adv-x="526" unicode="&#x28;"/><glyph d="M307 1462q146-263 146-601.5t-123-628-381-556.5h-105q258 274 384 567t126 610.5-127 608.5h80z" horiz-adv-x="526" unicode="&#x29;"/><glyph d="M725 1135l438 8-8-107-416 29 181-401-115-37-135 417-285-348-78 78 318 318-392 125 39 102 394-168 47 408 121-19z" horiz-adv-x="1137" unicode="&#x2a;"/><glyph d="M162 672v100h401v404h101v-404h401v-100h-401v-400h-101v400h-401z" unicode="&#x2b;"/><glyph d="M250 238l8-23q-35-93-113-232t-161-247h-74q80 133 142.5 275t86.5 227h111z" horiz-adv-x="451" unicode="&#x2c;"/><glyph d="M100 592h457l-16-90h-459z" horiz-adv-x="629" unicode="&#x2d;"/><glyph d="M82 55q0 56 25 88.5t69 32.5q66 0 66-72 0-54-25-88t-67-34q-68 0-68 73z" horiz-adv-x="485" unicode="&#x2e;"/><glyph d="M10 0h-110l815 1462h112z" horiz-adv-x="641" unicode="&#x2f;"/><glyph d="M1075 1016q0-198-40.5-403t-117.5-348q-151-285-425-285-353 0-353 514 0 184 44 381 45 197 124 334 160 276 428 276 340 0 340-469zM913 1301.5q-60 95.5-192 95.5t-239.5-113-173.5-329-66-445 63-335.5 199.5-106.5 241.5 112q104 112 165.5 336t61.5 490q0 200-60 295.5z" unicode="&#x30;"/><glyph d="M432 0l225 1055q23 110 74 293-41-35-71.5-58t-253.5-164l-52 78 406 258h90l-313-1462h-105z" unicode="&#x31;"/><glyph d="M961 1149q0 114-67 179t-196 65q-176 0-333-129l-54 73q181 146 394 146 173 0 268.5-85t95.5-237q0-109-44-209t-140.5-211-311.5-303l-383-338v-4h736l-17-96h-870l22 104 449 402q200 179 285.5 278t125.5 186 40 179z" unicode="&#x32;"/><glyph d="M705 1483q160 0 252-83t92-226q0-163-106.5-275.5t-285.5-142.5v-4q117-24 185.5-115.5t68.5-229.5q0-200-138-313.5t-364-113.5h-16q-190 0-338 73v101q174-86 344-86 197 0 303.5 89.5t106.5 252.5q0 144-88.5 222.5t-247.5 78.5h-117l21 96h110q208 0 333 95 124 96 124 259 0 115-64 175.5t-188 60.5q-166 0-344-131l-49 75q179 142 406 142z" unicode="&#x33;"/><glyph d="M807 371l-80-371h-96l80 371h-688l20 96 881 1010h118l-215-1018h265l-21-88h-264zM150 459h579q91 424 126.5 592.5t78.5 320.5h-4q-63-88-129-166z" unicode="&#x34;"/><glyph d="M582 879q188 0 292.5-102t104.5-279q0-237-148-378-149-140-407-140-81 0-176.5 20t-159.5 51v107q169-90 340-90 208 0 328.5 114.5t120.5 313.5q0 140-85.5 219.5t-221 79.5-246.5-41l-66 49 193 659h624l-18-96h-541l-149-516q99 29 215 29z" unicode="&#x35;"/><glyph d="M678 909q161 0 250.5-100.5t89.5-282.5v-10q0-229-134.5-382.5t-342.5-153.5h-11q-171 0-265.5 118.5t-94.5 329.5q0 283 105 544 204 509 653 509 124 0 182-21l-18-90q-87 23-170 23-234 0-393.5-173.5t-233.5-502.5h8q140 192 375 192zM550 68q105 0 190 59t130 161.5 45 224.5v5q0 147-67 225t-195 78q-164 0-283-119-56-56-78-114t-22-174q0-164 72-255t201-91h7z" unicode="&#x36;"/><glyph d="M1040 1366h-766l23 96h858l-20-110-779-1352h-112z" unicode="&#x37;"/><glyph d="M332 1114q0 158 113.5 264.5t284.5 106.5 265.5-85.5 94.5-225.5-83.5-236.5-285.5-173.5q129-78 189.5-170t60.5-209q0-179-130-292t-354-113q-177 0-284 92-105 93-105 253t100.5 269.5 321.5 187.5q-99 71-143.5 151t-44.5 181zM922.5 1335.5q-70.5 63.5-198 63.5t-212.5-82q-84-83-84-203 0-91 42-159.5t157-141.5q192 61 279 144t87 199-70.5 179.5zM296 565q-95-95-95-227.5t77-203.5 220-71q169 0 270.5 91.5t101.5 232.5q0 105-63 190t-197 156q-218-74-314-168z" unicode="&#x38;"/><glyph d="M559 545q-162 0-255 105t-93 284q0 154 59 281 60 127 171.5 196.5t256.5 69.5q174 0 267.5-115.5t93.5-333.5q0-288-101.5-547t-262.5-382-394-123q-116 0-186 22v90q89-29 192-29 474 0 627 674h-8q-140-192-367-192zM676 1393q-159 0-261-127t-102-313v-11q0-145 67.5-225t192.5-80q82 0 156.5 32t129 87 77 113.5 22.5 177.5q0 166-71 256t-201 90h-10z" unicode="&#x39;"/><glyph d="M260 989q0 57 25.5 89t68.5 32q66 0 66-72 0-55-25-89t-67-34q-68 0-68 74zM102 55q0 56 25.5 88.5t69.5 32.5q65 0 65-72 0-55-25.5-88.5t-66.5-33.5q-68 0-68 73z" horiz-adv-x="485" unicode="&#x3a;"/><glyph d="M266 989q0 57 25.5 89t68.5 32q66 0 66-72 0-55-25-89t-67-34q-68 0-68 74zM287 238l8-23q-34-95-117.5-241t-157.5-238h-73q80 133 142.5 275t86.5 227h111z" horiz-adv-x="485" unicode="&#x3b;"/><glyph d="M137 676v74l914 471v-103l-801-399 801-350v-107z" unicode="&#x3c;"/><glyph d="M168 985h903v-100h-903v100zM168 559h903v-98h-903v98z" unicode="&#x3d;"/><glyph d="M971 719l-801 399v103l915-471v-74l-915-414v107z" unicode="&#x3e;"/><glyph d="M778 1159q0 108-67.5 170t-182.5 62q-138 0-307-101l-39 86q186 107 352 107t257.5-84.5 91.5-220.5-66.5-243.5-230.5-225.5q-85-61-133-109t-72.5-94-46.5-144h-92l6 29q28 131 82 206 51 73 163 152.5t169 140.5q116 127 116 269zM170 59q0 56 25 88.5t69 32.5q66 0 66-71 0-55-25-89t-67-34q-68 0-68 73z" horiz-adv-x="799" unicode="&#x3f;"/><glyph d="M798-184q-148 0-273 47-256 98-354 356-47 126-47 277v12q0 276 121.5 493.5t337 337 473.5 119.5q190 0 330-73 141-71 221-212t80-316.5-56-321-154-228-203.5-82.5-162.5 54.5-57 144.5h-4q-54-96-132-147.5t-169-51.5q-112 0-178 73.5t-66 201.5v13q0 226 140.5 383t351.5 157h10q123 0 252-52l-84-315q-39-140-39-216.5t35-116.5 100-40q87 0 160.5 73.5t117 198.5 43.5 251v6q0 233-145.5 379.5t-388.5 146.5h-10q-235 0-424.5-108.5t-295.5-303.5-106-440q0-288 155-449t435-161q208 0 420 82v-90q-209-82-428-82h-6zM1000 969q-107 0-198-59t-142-164.5-51-229.5v-10q0-92 40.5-142.5t113.5-50.5q101 0 180.5 89.5t124.5 254.5l78 289q-67 23-139 23h-7z" horiz-adv-x="1724" unicode="&#x40;"/><glyph d="M293 520l-287-520h-117l822 1468h67l201-1468h-105l-69 520h-512zM793 612l-39 291q-32 241-39 402-20-41-56-111.5t-315-581.5h449z" horiz-adv-x="1059" unicode="&#x41;"/><glyph d="M791 1462q189 0 290-84t101-238.5-89.5-251-254.5-124.5v-4q124-30 188-112t64-206q0-206-140-324t-391-118h-457l310 1462h379zM655 811q206 0 313 81t107 238q0 119-78 180.5t-229 61.5h-272l-119-561h278zM565 90q202 0 310 88t108 256q0 145-90 216t-275 71h-260l-135-631h342z" horiz-adv-x="1202" unicode="&#x42;"/><glyph d="M961 1389q-197 0-350.5-103.5t-245-304.5-91.5-434 110.5-354 317.5-121q141 0 304 51v-94q-154-49-316-49-253 0-386.5 145.5t-133.5 410 104 487.5q105 223 285.5 341.5t401.5 118.5q176 0 307-68l-45-90q-117 64-262 64z" horiz-adv-x="1169" unicode="&#x43;"/><glyph d="M717 1462q282 0 426.5-147.5t144.5-435.5q0-253-109-460.5t-299.5-313-447.5-105.5h-330l310 1462h305zM430 90q227 0 395.5 94t260.5 276 92 412q0 498-476 498h-206l-275-1280h209z" horiz-adv-x="1350" unicode="&#x44;"/><glyph d="M102 0l310 1462h727l-21-94h-624l-117-553h590l-21-94h-588l-135-627h627l-21-94h-727z" horiz-adv-x="1067" unicode="&#x45;"/><glyph d="M102 0l310 1462h708l-20-94h-604l-134-620h570l-21-95h-569l-137-653h-103z" horiz-adv-x="981" unicode="&#x46;"/><glyph d="M707-20q-257 0-397 146t-140 416 105 488.5 283 335.5 396 117q115 0 206-19.5t181-58.5l-38-94q-104 44-185.5 61t-171.5 17q-184 0-339-107.5t-244-302-89-428 114.5-356.5 326.5-123q153 0 309 47l117 526h-303l18 90h406l-150-682q-210-73-405-73z" horiz-adv-x="1374" unicode="&#x47;"/><glyph d="M963 0l151 719h-760l-149-719h-103l310 1462h102l-139-649h760l137 649h100l-309-1462h-100z" horiz-adv-x="1366" unicode="&#x48;"/><glyph d="M412 1462h98l-309-1462h-99z" horiz-adv-x="504" unicode="&#x49;"/><glyph d="M-180-360q-98 0-144 24l11 92q58-20 137-20 213 0 262 241l309 1485h105l-314-1491q-35-170-125-250.5t-241-80.5z" horiz-adv-x="477" unicode="&#x4a;"/><glyph d="M868 0l-342 788-190-153-131-635h-103l310 1462h102l-158-723 133 121 680 602h138l-699-610 371-852h-111z" horiz-adv-x="1122" unicode="&#x4b;"/><glyph d="M412 1462h102l-289-1366h621l-23-96h-721z" horiz-adv-x="938" unicode="&#x4c;"/><glyph d="M1505 1462h150l-301-1462h-101l191 901q82 378 100 447h-6l-780-1348h-51l-222 1348h-6q-19-154-78-426l-196-922h-96l309 1462h143l205-1257h6z" horiz-adv-x="1669" unicode="&#x4d;"/><glyph d="M983 0l-516 1284h-8q-23-148-54.5-302.5t-207.5-981.5h-95l310 1462h80l522-1294h8q22 171 74 416l188 878h94l-309-1462h-86z" horiz-adv-x="1372" unicode="&#x4e;"/><glyph d="M893 1483q247 0 378.5-148.5t131.5-414.5-93.5-490-251-337-366.5-113q-250 0-385 149t-135 421 93 487 255 330.5 373 115.5zM879 1389q-173 0-309-101-134-101-214-298.5t-80-416.5q0-245 109.5-373t319.5-128q169 0 300 98 131 99 210 300t79 436.5-104.5 359-310.5 123.5z" horiz-adv-x="1464" unicode="&#x4f;"/><glyph d="M727 1462q202 0 310-92.5t108-267.5q0-500-610-500h-201l-129-602h-103l310 1462h315zM541 694q253 0 374 97t121 305q0 274-329 274h-211l-146-676h191z" horiz-adv-x="1145" unicode="&#x50;"/><glyph d="M307 129q-135 149-135 421t93 487 255 330.5 373 115.5q247 0 378.5-148.5t131.5-423.5q0-217-70-418-138-399-461-491l267-350h-142l-231 332-74-4q-250 0-385 149zM879 1389q-173 0-309-101-134-101-214-298.5t-80-416.5q0-245 109.5-373t319.5-128q169 0 300 98 131 99 210 300t79 436.5-104.5 359-310.5 123.5z" horiz-adv-x="1464" unicode="&#x51;"/><glyph d="M715 1462q430 0 430-360 0-181-103.5-302.5t-281.5-152.5q191-562 221-647h-111l-211 633h-323l-131-633h-103l310 1462h303zM610 725q208 0 317 96t109 281q0 268-329 268h-211l-138-645h252z" horiz-adv-x="1145" unicode="&#x52;"/><glyph d="M688 1397q-162 0-259-82.5t-97-218.5q0-103 49-170t182-133q156-80 213-130 119-101 119-260 0-126-66-225-131-198-448-198-186 0-344 75v109q164-92 350-92t293.5 86.5 107.5 232.5q0 87-31 133-13 20-23 34t-33 32-38 29-48.5 31-54.5 31.5-64 35.5q-151 77-210 164-59 89-59 206v7q0 111 59.5 201t164.5 139 232 49h5q100 0 181-18t167-60l-32-94q-66 40-152.5 63t-163.5 23z" horiz-adv-x="1020" unicode="&#x53;"/><glyph d="M336 0l289 1368h-432l20 94h973l-19-94h-440l-289-1368h-102z" horiz-adv-x="985" unicode="&#x54;"/><glyph d="M616-20q-440 0-440 401 0 83 27 201l186 880h103l-193-899q-20-91-20-184 0-309 342-309 195 0 307.5 97t158.5 318l207 977h101l-207-977q-59-270-197-388-139-117-375-117z" horiz-adv-x="1370" unicode="&#x55;"/><glyph d="M453 147h4q52 114 124 247l572 1068h117l-799-1462h-88l-182 1462h100l117-950q27-227 35-365z" horiz-adv-x="1079" unicode="&#x56;"/><glyph d="M1026 1341h-8q-24-68-58-144t-567-1197h-82l-73 1462h100l47-1031 4-165-2-86h6q87 231 170 398l434 884h105l61-878q19-259 19-410h6q35 100 60 161t495 1127h108q-120-259-338.5-749.5t-320.5-712.5h-78l-78 1075q-10 140-10 176.5v42.5 47z" horiz-adv-x="1702" unicode="&#x57;"/><glyph d="M772 0l-254 678-526-678h-127l608 766-272 696h106l240-626 483 626h119l-555-719 285-743h-107z" horiz-adv-x="971" unicode="&#x58;"/><glyph d="M1038 1462h117l-631-932-108-530h-105l119 545-237 917h100l201-817z" horiz-adv-x="965" unicode="&#x59;"/><glyph d="M-12 0l22 92 1069 1276h-764l23 94h887l-19-88-1069-1280h799l-23-94h-925z" unicode="&#x5a;"/><glyph d="M-57-324l376 1786h429l-19-90h-330l-340-1605h330l-20-91h-426z" horiz-adv-x="537" unicode="&#x5b;"/><glyph d="M537 0h-82l-246 1462h86z" horiz-adv-x="641" unicode="&#x5c;"/><glyph d="M629 1462l-377-1786h-428l18 91h330l340 1605h-330l21 90h426z" horiz-adv-x="537" unicode="&#x5d;"/><glyph d="M657 1475h91l260-906h-105l-217 809-500-809h-116z" horiz-adv-x="1047" unicode="&#x5e;"/><glyph d="M-182-291l18 86h807l-18-86h-807z" horiz-adv-x="801" unicode="&#x5f;"/><glyph d="M766 1241h-66q-50 53-114.5 145.5t-98.5 161.5v21h115q48-132 164-303v-25z" horiz-adv-x="1135" unicode="&#x60;"/><glyph d="M383-20q-281 0-281 374 0 197 75 375.5t200 276.5q127 98 278 98 233 0 279-219h6l59 202h80l-229-1087h-82l45 274h-6q-87-146-190-220t-234-74zM205 365q0-295 194-295 95 0 183 61.5t159 165.5 108.5 229.5 37.5 214.5q0 123-60 200t-177 77-216.5-81.5-164-245-64.5-326.5z" horiz-adv-x="1133" unicode="&#x61;"/><glyph d="M772 1108q281 0 281-375 0-204-75.5-380t-201-272.5-276.5-96.5q-113 0-186 58.5t-97 166.5h-6l-55-209h-80l327 1556h95q-130-626-162-751h6q92 155 198 229t232 74zM901 946.5q-49 71.5-145 71.5t-185-61-162-170q-72-111-106.5-237.5t-34.5-203.5q0-130 64-203t166-73q123 0 223 82t164.5 244.5 64.5 320.5-49 229.5z" horiz-adv-x="1151" unicode="&#x62;"/><glyph d="M750 37q-116-57-281.5-57t-266.5 110q-100 110-100 305.5t73.5 363.5 198.5 256.5 290 88.5q136 0 241-43l-28-90q-108 47-227.5 47t-223.5-77-162.5-223-58.5-311.5 73.5-251 209-85.5 262.5 59v-92z" horiz-adv-x="887" unicode="&#x63;"/><glyph d="M383-20q-281 0-281 374 0 192 71 370 72 178 198 278 126 102 284 102 229 0 279-219h4q10 54 143 671h99l-330-1556h-82l45 274h-6q-173-294-424-294zM406 70q89 0 178 62t160 169 107 231.5 36 208.5q0 125-61.5 201t-176.5 76-215-82-164.5-242-64.5-329q0-295 201-295z" horiz-adv-x="1133" unicode="&#x64;"/><glyph d="M768 49q-140-69-306-69t-263 109-97 297 71 355 195.5 265 274.5 98q115 0 182.5-61.5t67.5-165.5q0-182-164.5-276.5t-484.5-94.5h-33q-6-43-6-98 0-165 74-251.5t210-86.5 279 73v-94zM274 594q517 0 517 270 0 68-44 111t-116 43q-131 0-244-116t-162-308h49z" horiz-adv-x="928" unicode="&#x65;"/><glyph d="M-131-492q-49 0-102 19v90q51-16 100-16 87 0 134 52.5t75 186.5l246 1166h-205l14 67 205 14 35 160q35 168 116.5 244t227.5 76q74 0 166-31l-25-80q-87 27-147 27-97 0-154-54t-84-178l-35-164h248l-16-81h-248l-252-1190q-33-161-104-234.5t-195-73.5z" horiz-adv-x="578" unicode="&#x66;"/><glyph d="M901 799q0-110-54-206t-147-145-215-49q-63 0-77 9-81-33-124.5-73t-43.5-81.5 32.5-64.5 112.5-31l121-11q346-31 346-264 2-170-144-272.5t-390-102.5h-9q-185 0-292 72-105 72-105 203 0 236 309 334-78 42-78 123 0 122 191 202-71 36-110.5 105.5t-39.5 157.5v11q0 102 53.5 194t147.5 145 199 53h8q69 0 147-21h361l-17-79-243-11q26-28 43.5-84t17.5-114zM343 541.5q58-58.5 156-58.5 194 0 265 151 37 75 37 174t-56 156.5-157 57.5h-11q-125 0-208.5-92.5t-83.5-211 58-177zM84.5-37q-70.5-69-70.5-169t79.5-150 225.5-50q203 0 317 74t114 205q0 85-63 130-61 46-218 58l-160 15q-154-44-224.5-113z" horiz-adv-x="1040" unicode="&#x67;"/><glyph d="M913 692q21 92 21 165t-44.5 117-133.5 44q-113 0-211-67-194-132-269-474l-102-477h-98l332 1556h96l-86-411q-44-199-66-279h6q78 113 186.5 175.5t231 62.5 190.5-65 68-183q0-70-24-182l-148-674h-98z" horiz-adv-x="1143" unicode="&#x68;"/><glyph d="M350 1366q0 55 22 88t60 33q57 0 57-72 0-56-21.5-89.5t-57.5-33.5q-60 0-60 74zM76 0l231 1087h96l-229-1087h-98z" horiz-adv-x="475" unicode="&#x69;"/><glyph d="M350 1366q0 55 22 88t60 33q57 0 57-72 0-56-21.5-89.5t-57.5-33.5q-60 0-60 74zM-166-492q-63 0-113 19v92q45-22 120.5-22t122 51.5 71.5 177.5l266 1261h96l-268-1271q-35-163-105.5-235.5t-189.5-72.5z" horiz-adv-x="475" unicode="&#x6a;"/><glyph d="M879 1087h125l-474-469 297-618h-106l-264 559-205-188-80-371h-96l330 1556h96l-166-780-70-299h4z" horiz-adv-x="944" unicode="&#x6b;"/><glyph d="M76 0l334 1556h94l-334-1556h-94z" horiz-adv-x="475" unicode="&#x6c;"/><glyph d="M883 836q0 182-154 182-105 0-200-68-186-133-259-475l-100-475h-98l231 1087h80l-33-210h6q79 112 180.5 169.5t210.5 57.5 166-67 60-195h6q77 128 180.5 195t222 67 183.5-62 65-176q0-28-2-52.5t-20-123.5l-152-690h-100l149 680q25 118 25 185.5t-43 110-119 42.5q-156 0-277-137t-169-363l-109-518h-102l147 674q25 122 25 162z" horiz-adv-x="1751" unicode="&#x6d;"/><glyph d="M913 692q21 92 21 165t-44.5 117-133.5 44q-113 0-211-67-195-132-269-474l-102-477h-98l231 1087h82l-37-221h6q163 238 416 238 129 0 194.5-63.5t65.5-184.5q0-70-24-182l-148-674h-98z" horiz-adv-x="1143" unicode="&#x6e;"/><glyph d="M649 1108q181 0 278-109 99-108 99-301.5t-71.5-365.5-195.5-262-286-90q-183 0-279 109t-96 308 73 365 197 256 281 90zM851 939q-73 83-204 83t-230-79-157.5-225.5-58.5-309.5q0-342 282-342 127 0 225 77t157 229 59 318-73 249z" horiz-adv-x="1124" unicode="&#x6f;"/><glyph d="M770 1108q137 0 209-94t72-285-72.5-367.5-197.5-277-283-100.5q-230 0-279 219h-4q-20-107-149-695h-99l336 1579h82l-45-274h6q175 295 424 295zM748 1018q-87 0-174-58.5t-162-168.5-110.5-237.5-35.5-207.5q0-125 61-200.5t177-75.5 217 84.5 164 244 63 324.5q0 295-200 295z" horiz-adv-x="1149" unicode="&#x70;"/><glyph d="M379-20q-281 0-281 374 0 200 75.5 378.5t200 275 277.5 96.5q110 0 184-58.5t99-166.5h6l55 208h80l-327-1556h-95l98 470 64 282h-6q-92-155-198-229t-232-74zM248 143.5q47-73.5 145.5-73.5t189.5 62q90 63 160.5 172.5t105 237 34.5 199.5q0 130-63.5 203.5t-166.5 73.5q-123 0-223-82t-164.5-244.5-64.5-318.5 47-229.5z" horiz-adv-x="1157" unicode="&#x71;"/><glyph d="M713 1106q67 0 123-14l-21-93q-46 15-113 15-94 0-179-64t-153.5-193-99.5-276l-100-481h-98l231 1087h80l-29-204h6q74 95 123 135 105 88 230 88z" horiz-adv-x="752" unicode="&#x72;"/><glyph d="M782 952q-135 64-257 64t-192.5-52.5-70.5-138.5q0-54 17-88 34-66 180-145 114-63 161-104 93-77 93-193 0-145-103-230t-278-85-307 75v107q156-96 297-96t214.5 57.5 73.5 163.5q0 43-15.5 74.5t-51 61.5-131.5 85q-145 78-198.5 144t-53.5 161q0 128 98 209.5t260 81.5q75 0 157-17t142-47z" horiz-adv-x="827" unicode="&#x73;"/><glyph d="M236 207q0-139 126-139 66 0 152 26v-86q-99-28-170-28-100 0-153.5 54.5t-53.5 158.5q0 70 29 206l129 607h-182l14 67 184 17 97 253h55l-55-256h286l-18-81h-283l-135-635q-22-97-22-164z" horiz-adv-x="616" unicode="&#x74;"/><glyph d="M207 231q0-75 48-118t138-43h9q159 0 288 146.5t174 385.5l105 485h98l-231-1087h-80l28 205h-6q-167-221-403-221-131 0-198.5 62t-67.5 181q0 63 22 170l150 690h100l-152-698q-22-104-22-158z" horiz-adv-x="1143" unicode="&#x75;"/><glyph d="M104 1087h101l108-735q25-164 33-254h6q50 113 129 256l406 733h102l-600-1087h-113z" horiz-adv-x="895" unicode="&#x76;"/><glyph d="M764 952h-6q-35-93-144-290l-356-662h-117l-20 1087h92l13-821-3-157h6q61 133 150 297l373 681h77l64-681q14-152 14-297h6l24 61 101 236 320 681h96l-508-1087h-108l-60 686q-14 232-14 266z" horiz-adv-x="1393" unicode="&#x77;"/><glyph d="M49 0h-121l471 559-245 528h100l207-462 373 462h120l-448-534 258-553h-98l-224 483z" horiz-adv-x="922" unicode="&#x78;"/><glyph d="M-88-492q-68 0-129 21v92q71-27 143-27 155 0 271 214l100 184-174 1095h100l82-548q50-346 55-449h11q43 103 186 367l348 630h103l-713-1290q-71-126-123-178-109-111-260-111z" horiz-adv-x="920" unicode="&#x79;"/><glyph d="M-29 0l15 72 776 932h-543l17 83h659l-18-83-762-920h602l-17-84h-729z" horiz-adv-x="887" unicode="&#x7a;"/><glyph d="M444-324h-20q-256 0-256 199 0 47 16 115l56 252q18 90 18 127 0 159-199 159l21 78q125 0 190.5 49t89.5 158l89 393q30 135 106 195.5t215 60.5h29l-17-86q-86-2-128.5-20.5t-69.5-61-45-120.5l-74-338q-30-133-92-195-62-60-164-78v-4q68-18 105.5-68t37.5-111.5-24-174.5l-47-225q-13-56-13-109t37-81 139-28v-86z" horiz-adv-x="709" unicode="&#x7b;"/><glyph d="M684 1561v-2071h-100v2071h100z" unicode="&#x7c;"/><glyph d="M332 1462q129 0 188.5-50t59.5-148q0-39-17-115l-55-252q-19-92-19-127 0-78 50-119t149-41l-20-78q-125 0-191-48.5t-90-157.5l-88-394q-31-137-108.5-196.5t-213.5-59.5h-18v86q96 2 138 21t68.5 61.5 43.5 120.5l74 338q27 126 87.5 189.5t168.5 82.5v5q-72 19-108 70t-36 112.5 18 138.5l54 258q12 61 12 103 0 82-72 103-38 11-116 11l20 86h21z" horiz-adv-x="709" unicode="&#x7d;"/><glyph d="M1075 729q-111-113-230-113t-257 64.5-238 64.5q-50 0-109-31t-114-89v94q108 110 233 110 59 0 114-13.5t157-57.5q125-58 219-58 106 0 225 125v-96z" unicode="&#x7e;"/><glyph d="M530 195q-133 26-206.5 133.5t-73.5 281.5 63 331q64 157 178 253 116 96 257 111l36 178h90l-38-176q118-5 217-43l-29-90q-108 47-217 47-130 0-233-76t-162.5-222-59.5-314.5 73.5-252.5 205-84 268.5 60v-92q-117-58-281-58l-40-202h-93z" unicode="&#xa2;"/><glyph d="M588 1386q113 93 287.5 93t316.5-78l-39-84-54 26q-109 50-237.5 50t-214.5-74.5-117-220.5l-73-340h409l-18-82h-408l-57-268q-50-225-188-314h759l-20-94h-938l16 84q95 11 166.5 96.5t106.5 235.5l57 260h-199l17 82h198l76 350q41 185 154 278z" unicode="&#xa3;"/><glyph d="M1128 1462h117l-559-823h266l-16-76h-315l-39-190h317l-18-84h-316l-59-289h-105l64 289h-299l18 84h299l41 190h-301l17 76h258l-215 823h100l201-817z" unicode="&#xa5;"/><glyph d="M492 1366q0 49 20.5 78t56.5 29q54 0 54-64 0-48-21-77t-55-29q-55 0-55 63zM836 1366q0 49 20.5 78t56.5 29q54 0 54-64 0-48-21-77t-55-29q-55 0-55 63z" horiz-adv-x="1135" unicode="&#xa8;"/><glyph d="M517 83q-175 103-272.5 276t-97.5 372.5 100.5 375 275.5 276 375.5 100.5 376-100.5 276-275.5 100.5-374.5-98-373-272.5-276.5-381.5-103-382 103zM325 1056q-85-151-85-327.5t88-327.5 240.5-240 328.5-89 327 85 243 239.5 92 333.5-89 331-241 241-331.5 89-333.5-92-239-243zM944 1092q-142 0-222.5-95t-80.5-264q0-364 295-364 86 0 199 43v-88q-103-45-209-45-187 0-288 116t-101 326.5 110 335.5 297 125q120 0 227-52l-36-83q-99 45-191 45z" horiz-adv-x="1704" unicode="&#xa9;"/><glyph d="M483 883l-317-336 213-385-64-39-254 418 2 26 363 365zM844 883l-314-336 209-385-63-39-254 418 2 26 362 365z" horiz-adv-x="860" unicode="&#xab;"/><glyph d="M100 592h457l-16-90h-459z" horiz-adv-x="629" unicode="&#xad;"/><glyph d="M150 732q0 206 102.5 380t276.5 272.5 373 98.5 374.5-100.5 276-275.5 100.5-374.5-98-373-272.5-276.5-380.5-103-378 100-273 273-101 379zM327 1056q-85-151-85-327.5t88-327.5 240.5-240 328.5-89 327 85 243 239.5 92 333.5-89 331-241 241-331.5 89-333.5-92-239-243zM657 1171h211q146 0 223.5-63t77.5-190q0-80-39.5-140.5t-109.5-93.5l237-393h-120l-211 360h-168v-360h-101v880zM758 731h112q94 0 144.5 46.5t50.5 135.5q0 172-197 172h-110v-354z" horiz-adv-x="1704" unicode="&#xae;"/><glyph d="M580 1241v21q68 52 150 142 84 90 130 165h137v-23q-50-65-158-159-109-93-192-146h-67z" horiz-adv-x="1135" unicode="&#xb4;"/><glyph d="M197-289q0-95-76.5-149t-216.5-54q-49 0-78 7v79q30-6 72-6 198 0 198 115 0 97-151 107l110 190h80l-78-137q140-30 140-152z" horiz-adv-x="420" unicode="&#xb8;"/><glyph d="M33 172l313 336-209 385 64 39 254-418-2-27-363-364zM393 172l314 336-209 385 63 39 254-418-2-27-362-364z" horiz-adv-x="860" unicode="&#xbb;"/><glyph d="M958 1241h-49q-68 58-161 207-57-59-129.5-118t-120.5-89h-54v29q68 56 158.5 150t126.5 149h64q23-65 71-151t94-148v-29z" horiz-adv-x="1135" unicode="&#x2c6;"/><glyph d="M913 1589.5q54-50.5 54-142t-58-148-148.5-56.5-145 52.5-54.5 142.5 59 146q61 56 150 56t143-50.5zM854.5 1353q34.5 36 34.5 92.5t-33.5 90-90 33.5-90.5-35.5-34-93 33-90.5 89.5-33 91 36z" horiz-adv-x="1182" unicode="&#x2da;"/><glyph d="M831 1249q-60 0-153 64-33 23-45.5 31t-38 18-49.5 10q-46 0-75-29t-50-100h-74q19 109 71.5 167t133.5 58q40 0 72.5-13.5t118.5-72.5q52-36 94.5-36t71 31 46.5 100h76q-26-117-74.5-172.5t-124.5-55.5z" horiz-adv-x="1135" unicode="&#x2dc;"/><glyph d="M670-80q51 0 51-49 0-12-3-27-17-74-80-74-49 0-49 46 0 12 4 28 16 76 77 76zM614-343q52 0 52-48 0-12-4-28-16-75-80-75-49 0-49 46 0 13 4 29 17 76 77 76z" horiz-adv-x="0" unicode="&#x5b0;"/><glyph d="M428-80q50 0 50-48 0-13-3-28-17-74-79-74-49 0-49 46 0 12 4 28 16 76 77 76zM715-80q50 0 50-48 0-13-3-28-17-74-79-74-49 0-49 46 0 12 4 28 16 76 77 76zM969-80q51 0 51-49 0-12-3-27-17-74-80-74-48 0-48 45 0 13 4 29 16 76 76 76zM514-343q52 0 52-48 0-12-4-28-16-75-80-75-49 0-49 46 0 13 4 29 17 76 77 76zM913-343q52 0 52-48 0-12-4-28-16-75-80-75-48 0-48 46 0 13 4 29 17 76 76 76z" horiz-adv-x="0" unicode="&#x5b1;"/><glyph d="M910-80q51 0 51-49 0-12-3-27-17-74-80-74-49 0-49 46 0 12 4 28 16 76 77 76zM734-190h-356l15 71h356zM854-343q52 0 52-48 0-12-4-28-17-75-80-75-49 0-49 46 0 13 4 29 17 76 77 76z" horiz-adv-x="0" unicode="&#x5b2;"/><glyph d="M910-80q51 0 51-49 0-12-3-27-17-74-80-74-49 0-49 46 0 12 4 28 16 76 77 76zM734-190h-142l-43-202h-72l43 202h-142l15 71h356zM854-343q52 0 52-48 0-12-4-28-17-75-80-75-49 0-49 46 0 13 4 29 17 76 77 76z" horiz-adv-x="0" unicode="&#x5b3;"/><glyph d="M642-80q51 0 51-49 0-12-3-27-17-74-80-74-49 0-49 46 0 12 4 28 16 76 77 76z" horiz-adv-x="0" unicode="&#x5b4;"/><glyph d="M499-80q50 0 50-48 0-13-3-28-17-74-79-74-49 0-49 46 0 12 4 28 16 76 77 76zM786-80q50 0 50-48 0-13-3-28-17-74-79-74-49 0-49 46 0 12 4 28 16 76 77 76z" horiz-adv-x="0" unicode="&#x5b5;"/><glyph d="M528-80q50 0 50-48 0-13-3-28-17-74-79-74-49 0-49 46 0 12 4 28 16 76 77 76zM815-80q50 0 50-48 0-13-3-28-17-74-79-74-49 0-49 46 0 12 4 28 16 76 77 76zM614-343q52 0 52-48 0-12-4-28-16-75-80-75-49 0-49 46 0 13 4 29 17 76 77 76z" horiz-adv-x="0" unicode="&#x5b6;"/><glyph d="M797-183h-357l16 72h357z" horiz-adv-x="0" unicode="&#x5b7;"/><glyph d="M819-183h-143l-43-201h-71l43 201h-143l15 72h357z" horiz-adv-x="0" unicode="&#x5b8;"/><glyph d="M642 1360q51 0 51-49 0-12-3-27-17-74-80-74-49 0-49 46 0 12 4 28 16 76 77 76z" horiz-adv-x="0" unicode="&#x5b9;"/><glyph d="M599 1360q51 0 51-49 0-12-3-27-17-74-80-74-48 0-48 45 0 13 4 29 16 76 76 76z" horiz-adv-x="0" unicode="&#x5ba;"/><glyph d="M528-80q50 0 50-48 0-13-3-28-17-74-79-74-49 0-49 46 0 12 4 28 16 76 77 76zM642-211q52 0 52-48 0-12-4-28-16-75-80-75-49 0-49 46 0 13 4 29 17 76 77 76zM759-343q51 0 51-47 0-13-4-29-16-75-79-75-48 0-48 47 0 12 3 28 17 76 77 76z" horiz-adv-x="0" unicode="&#x5bb;"/><glyph d="M642 639q51 0 51-49 0-12-3-27-17-74-80-74-49 0-49 46 0 12 4 28 16 76 77 76z" horiz-adv-x="0" unicode="&#x5bc;"/><glyph d="M639-443h-89l66 306h89z" horiz-adv-x="1256" unicode="&#x5bd;"/><glyph d="M678 1200h-459l18 90h457z" horiz-adv-x="614" unicode="&#x5be;"/><glyph d="M595 1360q51 0 51-49 0-12-3-27-17-74-80-74-49 0-49 46 0 12 4 28 16 76 77 76z" horiz-adv-x="0" unicode="&#x5c1;"/><glyph d="M642 1360q51 0 51-49 0-12-3-27-17-74-80-74-49 0-49 46 0 12 4 28 16 76 77 76z" horiz-adv-x="0" unicode="&#x5c2;"/><glyph d="M379-129h-108l-25-117h-71l25 117h-108l15 72h287z" horiz-adv-x="0" unicode="&#x5c7;"/><glyph d="M1150 1290l-100-472q-11-53-24-95.5t-39-95-59-91.5-85.5-73-117.5-50l162-413h-110l-313 799q-45 0-94-25-80-41-127-119t-75-207l-95-448h-98l95 449q12 55 26 101.5t42.5 105 65.5 101.5 95.5 78.5 131.5 48.5l-160 406h109l312-793q34 6 63 20 82 40 126 107.5t71 194.5l100 471h98z" horiz-adv-x="1141" unicode="&#x5d0;"/><glyph d="M209 1300q158 10 245 10t130-3.5 85.5-11 76-21.5 63-33.5 48.5-47.5 30.5-63 11.5-82-12-102l-183-858h151l-18-88h-903l18 88h650l183 858q10 47 10 82.5t-9 62-23.5 47.5-38 35-49.5 23.5-61 14.5q-62 9-151.5 9t-272.5-11z" horiz-adv-x="1016" unicode="&#x5d1;"/><glyph d="M537 1310q127 0 169-80 24-46 24-102.5t-12-112.5l-216-1015h-87l35 213h-7q-68-85-112-121-114-96-260-96-58 0-128 11l38 94q52-13 119-13 137 0 252.5 115.5t156.5 307.5l107 504q12 62 12 105.5t-28.5 71.5-89 28-152.5-17l19 92q80 15 160 15z" horiz-adv-x="770" unicode="&#x5d2;"/><glyph d="M1086 1290l-16-77q-49-16-85-34t-77-50q-83-65-113-201l-197-928h-102l197 928q13 59 38 109t52 79q55 59 93 78l16 8h-729l19 88h904z" horiz-adv-x="989" unicode="&#x5d3;"/><glyph d="M317 1290q296 20 390.5 20t137.5-3.5 85.5-11 76-21.5 63-33.5 48.5-47.5 30.5-63 11.5-82-12-102l-201-946h-103l201 946q10 47 10 82.5t-8.5 62-23 47.5-38 35-49.5 23.5-60 14.5q-63 9-172.5 9t-406.5-22zM145 0h-102l173 813h102z" horiz-adv-x="1256" unicode="&#x5d4;"/><glyph d="M147 0h-102l274 1290h102z" horiz-adv-x="466" unicode="&#x5d5;"/><glyph d="M572 1290l-16-77q-71-48-139.5-156t-97.5-242l-173-815h-102l173 815q17 79 49 150t68 119q66 84 110 118h-289l19 88h398z" horiz-adv-x="466" unicode="&#x5d6;"/><glyph d="M579.5 1306q85.5 4 154 4t111.5-3.5 85.5-11 76-21.5 63-33.5 48.5-47.5 30.5-63 11.5-82-12-102l-201-946h-103l201 946q10 47 10 82.5t-8.5 62-23 47.5-38 35-49.5 23.5-60 14.5q-63 9-172.5 9t-302.5-15l-256-1205h-102l274 1290q8 0 92.5 6t170 10z" horiz-adv-x="1256" unicode="&#x5d7;"/><glyph d="M796 1310q230 0 322-163 53-92 53-239 0-115-32-263-72-339-233.5-502t-392-163-323.5 163q-52 92-52 239 0 115 32 263l137 645h103l-137-645q-32-148-32-248 0-140 51-219 32-50 92.5-79t147.5-29 159.5 29 125 78.5 94.5 124 70 157.5 50 186q32 149 32 250 0 140-49 217-31 50-91 79t-147 29q-46 0-94-10l20 92q48 8 94 8z" horiz-adv-x="1258" unicode="&#x5d8;"/><glyph d="M266 596l-117-114h-9l172 808h102z" horiz-adv-x="442" unicode="&#x5d9;"/><glyph d="M783 892q0 328-312 328-96 0-174-21-26-7-62.5-19t-44.5-14l20 95q44 18 124 33t165.5 15 158-24 116.5-67q93-89 108-222 4-45 4-79 0-101-21-200l-257-1209h-104l257 1209q22 95 22 175z" horiz-adv-x="968" unicode="&#x5da;"/><glyph d="M501 1309q95 0 176-35t124-91.5 60.5-130 17.5-143.5q0-86-22-192l-38-181q-32-145-99-262-29-50-77.5-106.5t-105.5-96-140-65.5-167.5-26-154.5 9-103 18l-34 9 23 108q11-6 32.5-15t93.5-24 158-15 166 37.5 130.5 90.5 89.5 122q59 105 84 216l38 181q22 95 22 175 0 328-311 328-113 0-236-40-39-12-45-14l20 95q45 19 124 33.5t174 14.5z" horiz-adv-x="961" unicode="&#x5db;"/><glyph d="M992 1296l-25-114-335-675-199-507h-104l195 496 352 704h-708l79 369h102l-58-273h701z" horiz-adv-x="930" unicode="&#x5dc;"/><glyph d="M569.5 1306q85.5 4 154 4t111.5-3.5 85.5-11 76-21.5 63-33.5 48.5-47.5 30.5-63 11.5-82-12-102l-201-946h-904l274 1290q8 0 92.5 6t170 10zM1035 946q10 47 10 82.5t-8.5 62-23 47.5-38 35-49.5 23.5-60 14.5q-63 9-172.5 9t-302.5-15l-238-1117h699z" horiz-adv-x="1246" unicode="&#x5dd;"/><glyph d="M389 1155h13q98 98 260 138 69 17 141 17 179 0 249-114 43-71 43-174 0-62-16-136l-188-886h-385l18 88h284l170 798q13 59 13 108 0 80-33 136-54 90-174 90-83 0-155.5-20t-116.5-48q-92-59-124-106l-13-20-315-1026h-102l309 1005q11 35 13 57t3.5 33 .5 28.5-1 25.5-2.5 27.5-3 24-4.5 26-4 24.5l-8 45h109q19-87 19-141z" horiz-adv-x="1200" unicode="&#x5de;"/><glyph d="M355 1290q7-49 7-96t-2.5-126-20.5-163l-297-1397h-102l297 1397q24 118 24 214.5t-9 170.5h103z" horiz-adv-x="462" unicode="&#x5df;"/><glyph d="M587 1310q129 0 180-82 33-53 33-128 0-39-9-85l-145-682q-15-68-42.5-151t-47.5-132l-20-50h-546l18 88h456q54 127 80 245l145 682q7 39 7 63.5t-2 39.5q-4 45-38 73.5t-101.5 28.5-162.5-17l20 92q78 15 175 15z" horiz-adv-x="884" unicode="&#x5e0;"/><glyph d="M743 1310q225 0 320-156 55-91 55-243 0-114-30-263-73-339-235-503.5t-392-164.5-322 164q-52 92-52 223t32 281q85 400 306 563-16-1-76.5-3t-91.5-4l19 92q275 14 467 14zM842 1203q-51 17-109 17-106 0-175-4l-23-2q-119-94-193-230t-116-336q-33-153-33-254 0-138 48-215 31-50 91-79.5t147-29.5 159.5 29.5 125 79.5 95.5 125q75 133 120 344 32 147 32 257 0 176-86 252-32 29-83 46z" horiz-adv-x="1207" unicode="&#x5e1;"/><glyph d="M1248 1290l-174-555q-86-274-306-479-107-101-250.5-170.5t-315.5-94-289-40.5l18 88 293 42q61 9 129 29l-60 1180h99l27-584 17-566q189 78 335.5 232.5t211.5 362.5l173 555h92z" horiz-adv-x="1161" unicode="&#x5e2;"/><glyph d="M430 441q-159 0-238 117-53 77-53 186 0 54 13 115 23 109 83 197t139 142q163 112 343 112 230 0 322-163 52-91 52-222t-32-280l-242-1137h-102l242 1137q30 145 30 240.5t-24 172-91.5 119.5-162 43-165.5-23.5-121-61-89-85.5q-105-132-105-297 0-76 31-127 50-83 194-104l14-2-33-79h-5z" horiz-adv-x="1222" unicode="&#x5e3;"/><glyph d="M442 441q-159 0-238 117-53 77-53 186 0 54 13 115 23 109 83 197t139 142q162 112 342 112 230 0 322-163 53-92 53-239 0-115-32-263-72-339-233.5-502t-391.5-163q-173 0-284 15l-37 5 19 89q161-19 320-19 87 0 159.5 29t125 78.5 94.5 124 70 157.5 50 186q32 149 32 250 0 140-49 217-31 50-91 79t-144 29-155.5-23.5-121-61-88.5-85.5q-105-128-105-288 0-85 39-147 58-95 185-95h14l-32-79h-5z" horiz-adv-x="1190" unicode="&#x5e4;"/><glyph d="M954 1290l-82-389q-38-181-137-285-38-40-97-74.5t-132-52.5l-160-41-199-940h-102l221 1042-112 740h102l111-746 159 42q86 23 152 106.5t93 208.5l82 389h101z" horiz-adv-x="898" unicode="&#x5e5;"/><glyph d="M1114 1290l-78-254q-49-157-147.5-298.5t-236.5-245.5l194-429-13-63h-888l19 88h767l-225 492-283 710h108l249-640 38-82q238 184 327 468l79 254h90z" horiz-adv-x="1074" unicode="&#x5e6;"/><glyph d="M1213 1202l-302-609q-11-23-40.5-82.5t-47-95-44.5-92.5-45-96-36-83q-39-90-46-127l-4-17h-100l4 17q22 101 240 542 12 23 17 34l302 609h-808l18 88h910zM46-492h-102l266 1251h102z" horiz-adv-x="1174" unicode="&#x5e7;"/><glyph d="M197 1300q170 10 264 10t137-3.5 85.5-11 76-21.5 63-33.5 48.5-47.5 30.5-63 11.5-82-12-102l-201-946h-102l201 946q10 47 10 82.5t-9 62-23.5 47.5-38 35-49.5 23.5-61 14.5q-62 9-134 9-118 0-271-8l-45-3z" horiz-adv-x="993" unicode="&#x5e8;"/><glyph d="M416 0h-372l165 1290h95l-100-778q94 24 153 48.5t114.5 63.5 97.5 94q87 115 150 318l79 254h91l-79-254q-45-144-95-242t-121.5-173.5-167.5-120.5q-96-47-233-74l-43-339h284q155 0 308 84.5t271 233 174 330.5l172 555h92l-173-555q-72-230-227-411-174-204-391-282-119-42-244-42z" horiz-adv-x="1369" unicode="&#x5e9;"/><glyph d="M1094 1193q42-62 42-145 0-47-12-102l-201-946h-102l201 946q10 47 10 82.5t-9 62-23.5 47.5-38 35-49.5 23.5-60 14.5q-63 9-152.5 9t-222.5-7l-193-905q-65-308-331-308-22 0-65 9l18 84q27-3 66-3 77 0 132 53.5t78 164.5l192 900-149-10 20 92q296 20 473.5 20t260-34.5 115.5-82.5z" horiz-adv-x="1232" unicode="&#x5ea;"/><glyph d="M425 1290l4-22q-46-110-118-237t-158-242h-74q68 109 128.5 239t104.5 262h113z" horiz-adv-x="297" unicode="&#x5f3;"/><glyph d="M430 1290l4-22q-46-110-118-237t-158-242h-74q68 109 128.5 239t104.5 262h113zM764 1290l4-22q-46-110-118-237t-158-242h-74q68 109 128.5 239t104.5 262h113z" horiz-adv-x="631" unicode="&#x5f4;"/><glyph horiz-adv-x="820" unicode="&#x2000;"/><glyph horiz-adv-x="1640" unicode="&#x2001;"/><glyph horiz-adv-x="820" unicode="&#x2002;"/><glyph horiz-adv-x="1640" unicode="&#x2003;"/><glyph horiz-adv-x="546" unicode="&#x2004;"/><glyph horiz-adv-x="410" unicode="&#x2005;"/><glyph horiz-adv-x="273" unicode="&#x2006;"/><glyph horiz-adv-x="273" unicode="&#x2007;"/><glyph horiz-adv-x="205" unicode="&#x2008;"/><glyph horiz-adv-x="328" unicode="&#x2009;"/><glyph horiz-adv-x="91" unicode="&#x200a;"/><glyph d="M100 592h457l-16-90h-459z" horiz-adv-x="629" unicode="&#x2010;"/><glyph d="M100 592h457l-16-90h-459z" horiz-adv-x="629" unicode="&#x2011;"/><glyph d="M100 592h457l-16-90h-459z" horiz-adv-x="629" unicode="&#x2012;"/><glyph d="M84 592h807l-17-90h-808z" horiz-adv-x="983" unicode="&#x2013;"/><glyph d="M86 592h1788l-16-90h-1790z" horiz-adv-x="1966" unicode="&#x2014;"/><glyph d="M479 1462q-141-227-233-501h-113l-4 22q39 98 115 229.5t162 249.5h73z" horiz-adv-x="299" unicode="&#x2018;"/><glyph d="M475 1462l4-22q-46-110-118-237t-158-242h-74q68 109 128.5 239t104.5 262h113z" horiz-adv-x="299" unicode="&#x2019;"/><glyph d="M246 238l4-23q-42-100-115.5-230.5t-161.5-248.5h-73q69 111 131 248 64 137 102 254h113z" horiz-adv-x="451" unicode="&#x201a;"/><glyph d="M479 1462q-141-227-233-501h-113l-4 22q39 98 115 229.5t162 249.5h73zM813 1462q-141-227-233-501h-113l-4 22q45 107 120 239t156 240h74z" horiz-adv-x="631" unicode="&#x201c;"/><glyph d="M475 1462l4-22q-46-110-118-237t-158-242h-74q68 109 128.5 239t104.5 262h113zM809 1462l4-22q-46-110-118-237t-158-242h-74q68 109 128.5 239t104.5 262h113z" horiz-adv-x="631" unicode="&#x201d;"/><glyph d="M227 238l4-23q-44-106-118-236.5t-158-242.5h-74q73 118 135 255 64 136 99 247h112zM561 238l4-23q-44-106-118-236.5t-158-242.5h-74q66 108 128.5 241t105.5 261h112z" horiz-adv-x="776" unicode="&#x201e;"/><glyph d="M69 55q0 56 25 88.5t69 32.5q66 0 66-72 0-54-25-88t-67-34q-68 0-68 73zM569 55q0 56 25 88.5t69 32.5q66 0 66-72 0-54-25-88t-67-34q-68 0-68 73zM1071 55q0 56 25 88.5t69 32.5q66 0 66-72 0-54-25-88t-67-34q-68 0-68 73z" horiz-adv-x="1489" unicode="&#x2026;"/><glyph horiz-adv-x="328" unicode="&#x202f;"/><glyph d="M508 883l-318-336 213-385-63-39-254 418 2 26 363 365z" horiz-adv-x="537" unicode="&#x2039;"/><glyph d="M37 172l317 336-213 385 64 39 254-418-2-27-363-364z" horiz-adv-x="537" unicode="&#x203a;"/><glyph horiz-adv-x="410" unicode="&#x205f;"/><glyph d="M991 1389q-186 0-330.5-120.5t-226.5-346.5h457l-21-82h-460q-30-97-39-217h442l-20-82h-424q0-241 88-355t266-114q115 0 252 57v-94q-128-55-270-55-210 0-325.5 139.5t-115.5 394.5v27h-184l16 82h172q4 99 35 217h-170l19 82h174q94 273 270 417t399 144q165 0 287-90l-53-82q-102 78-238 78z" unicode="&#x20ac;"/><glyph d="M391 741v643h-217v78h522v-78h-219v-643h-86zM854 741h-82v721h125l221-606 223 606h125v-721h-86v398l4 207h-6l-227-605h-74l-221 609h-6l4-201v-408z" horiz-adv-x="1534" unicode="&#x2122;"/><glyph d="M0 1085h1085v-1085h-1085v1085z" horiz-adv-x="1085" unicode="&#x25fc;"/><glyph d="M344-492q-49 0-102 19v90q51-16 100-16 87 0 133.5 52.5t75.5 186.5l246 1166h-205l14 67 205 14 35 160q35 168 116.5 244t227.5 76q74 0 166-31l-25-80q-87 27-147 27-97 0-154-54t-84-178l-35-164h248l-16-81h-248l-252-1190q-33-161-104-234.5t-195-73.5zM350 1366q0 55 22 88t60 33q57 0 57-72 0-56-21.5-89.5t-57.5-33.5q-60 0-60 74zM76 0l231 1087h96l-229-1087h-98z" horiz-adv-x="1053" unicode="&#xfb01;"/><glyph d="M344-492q-49 0-102 19v90q51-16 100-16 87 0 133.5 52.5t75.5 186.5l246 1166h-205l14 67 205 14 35 160q35 168 116.5 244t227.5 76q74 0 166-31l-25-80q-87 27-147 27-97 0-154-54t-84-178l-35-164h248l-16-81h-248l-252-1190q-33-161-104-234.5t-195-73.5zM410 1556h94l-334-1556h-94z" horiz-adv-x="1053" unicode="&#xfb02;"/><glyph d="M1490 1548q51 0 51-49 0-12-3-27-17-74-80-74-49 0-49 46 0 12 4 28 16 76 77 76zM416 0h-372l165 1290h95l-100-778q94 24 153 48.5t114.5 63.5 97.5 94q87 115 150 318l79 254h91l-79-254q-45-144-95-242t-121.5-173.5-167.5-120.5q-96-47-233-74l-43-339h284q155 0 308 84.5t271 233 174 330.5l172 555h92l-173-555q-72-230-227-411-174-204-391-282-119-42-244-42z" horiz-adv-x="1369" unicode="&#xfb2a;"/><glyph d="M292 1548q51 0 51-49 0-12-3-27-17-74-80-74-49 0-49 46 0 12 4 28 16 76 77 76zM416 0h-372l165 1290h95l-100-778q94 24 153 48.5t114.5 63.5 97.5 94q87 115 150 318l79 254h91l-79-254q-45-144-95-242t-121.5-173.5-167.5-120.5q-96-47-233-74l-43-339h284q155 0 308 84.5t271 233 174 330.5l172 555h92l-173-555q-72-230-227-411-174-204-391-282-119-42-244-42z" horiz-adv-x="1369" unicode="&#xfb2b;"/><glyph d="M1490 1548q51 0 51-49 0-12-3-27-17-74-80-74-49 0-49 46 0 12 4 28 16 76 77 76zM416 0h-372l165 1290h95l-100-778q94 24 153 48.5t114.5 63.5 97.5 94q87 115 150 318l79 254h91l-79-254q-45-144-95-242t-121.5-173.5-167.5-120.5q-96-47-233-74l-43-339h284q155 0 308 84.5t271 233 174 330.5l172 555h92l-173-555q-72-230-227-411-174-204-391-282-119-42-244-42zM734 526q51 0 51-49 0-12-3-27-17-74-80-74-49 0-49 46 0 12 4 28 16 76 77 76z" horiz-adv-x="1369" unicode="&#xfb2c;"/><glyph d="M292 1548q51 0 51-49 0-12-3-27-17-74-80-74-49 0-49 46 0 12 4 28 16 76 77 76zM416 0h-372l165 1290h95l-100-778q94 24 153 48.5t114.5 63.5 97.5 94q87 115 150 318l79 254h91l-79-254q-45-144-95-242t-121.5-173.5-167.5-120.5q-96-47-233-74l-43-339h284q155 0 308 84.5t271 233 174 330.5l172 555h92l-173-555q-72-230-227-411-174-204-391-282-119-42-244-42zM734 526q51 0 51-49 0-12-3-27-17-74-80-74-49 0-49 46 0 12 4 28 16 76 77 76z" horiz-adv-x="1369" unicode="&#xfb2d;"/><glyph d="M1150 1290l-100-472q-11-53-24-95.5t-39-95-59-91.5-85.5-73-117.5-50l162-413h-110l-313 799q-45 0-94-25-80-41-127-119t-75-207l-95-448h-98l95 449q12 55 26 101.5t42.5 105 65.5 101.5 95.5 78.5 131.5 48.5l-160 406h109l312-793q34 6 63 20 82 40 126 107.5t71 194.5l100 471h98zM565-216h-357l16 72h357z" horiz-adv-x="1141" unicode="&#xfb2e;"/><glyph d="M1150 1290l-100-472q-11-53-24-95.5t-39-95-59-91.5-85.5-73-117.5-50l162-413h-110l-313 799q-45 0-94-25-80-41-127-119t-75-207l-95-448h-98l95 449q12 55 26 101.5t42.5 105 65.5 101.5 95.5 78.5 131.5 48.5l-160 406h109l312-793q34 6 63 20 82 40 126 107.5t71 194.5l100 471h98zM566-216h-143l-43-201h-71l43 201h-143l15 72h357z" horiz-adv-x="1141" unicode="&#xfb2f;"/><glyph d="M1150 1290l-100-472q-11-53-24-95.5t-39-95-59-91.5-85.5-73-117.5-50l162-413h-110l-313 799q-45 0-94-25-80-41-127-119t-75-207l-95-448h-98l95 449q12 55 26 101.5t42.5 105 65.5 101.5 95.5 78.5 131.5 48.5l-160 406h109l312-793q34 6 63 20 82 40 126 107.5t71 194.5l100 471h98zM389 448q51 0 51-49 0-12-3-27-17-74-80-74-49 0-49 46 0 12 4 28 16 76 77 76z" horiz-adv-x="1141" unicode="&#xfb30;"/><glyph d="M209 1300q158 10 245 10t130-3.5 85.5-11 76-21.5 63-33.5 48.5-47.5 30.5-63 11.5-82-12-102l-183-858h151l-18-88h-903l18 88h650l183 858q10 47 10 82.5t-9 62-23.5 47.5-38 35-49.5 23.5-61 14.5q-62 9-151.5 9t-272.5-11zM387 741q51 0 51-49 0-12-3-27-17-74-80-74-49 0-49 46 0 12 4 28 16 76 77 76z" horiz-adv-x="1016" unicode="&#xfb31;"/><glyph d="M537 1310q127 0 169-80 24-46 24-102.5t-12-112.5l-216-1015h-87l35 213h-7q-68-85-112-121-114-96-260-96-58 0-128 11l38 94q52-13 119-13 137 0 252.5 115.5t156.5 307.5l107 504q12 62 12 105.5t-28.5 71.5-89 28-152.5-17l19 92q80 15 160 15zM296 741q51 0 51-49 0-12-3-27-17-74-80-74-49 0-49 46 0 12 4 28 16 76 77 76z" horiz-adv-x="770" unicode="&#xfb32;"/><glyph d="M1086 1290l-16-77q-49-16-85-34t-77-50q-83-65-113-201l-197-928h-102l197 928q13 59 38 109t52 79q55 59 93 78l16 8h-729l19 88h904zM385 741q51 0 51-49 0-12-3-27-17-74-80-74-49 0-49 46 0 12 4 28 16 76 77 76z" horiz-adv-x="989" unicode="&#xfb33;"/><glyph d="M317 1290q296 20 390.5 20t137.5-3.5 85.5-11 76-21.5 63-33.5 48.5-47.5 30.5-63 11.5-82-12-102l-201-946h-103l201 946q10 47 10 82.5t-8.5 62-23 47.5-38 35-49.5 23.5-60 14.5q-63 9-172.5 9t-406.5-22zM145 0h-102l173 813h102zM644 741q51 0 51-49 0-12-3-27-17-74-80-74-49 0-49 46 0 12 4 28 16 76 77 76z" horiz-adv-x="1256" unicode="&#xfb34;"/><glyph d="M148 0h-102l274 1290h102zM19 741q51 0 51-49 0-12-3-27-17-74-80-74-49 0-49 46 0 12 4 28 16 76 77 76z" horiz-adv-x="466" unicode="&#xfb35;"/><glyph d="M573 1290l-16-77q-71-48-139.5-156t-97.5-242l-173-815h-102l173 815q17 79 49 150t68 119q66 84 110 118h-289l19 88h398zM19 741q51 0 51-49 0-12-3-27-17-74-80-74-49 0-49 46 0 12 4 28 16 76 77 76z" horiz-adv-x="466" unicode="&#xfb36;"/><glyph d="M796 1310q230 0 322-163 53-92 53-239 0-115-32-263-72-339-233.5-502t-392-163-323.5 163q-52 92-52 239 0 115 32 263l137 645h103l-137-645q-32-148-32-248 0-140 51-219 32-50 92.5-79t147.5-29 159.5 29 125 78.5 94.5 124 70 157.5 50 186q32 149 32 250 0 140-49 217-31 50-91 79t-147 29q-46 0-94-10l20 92q48 8 94 8zM662 741q51 0 51-49 0-12-3-27-17-74-80-74-49 0-49 46 0 12 4 28 16 76 77 76z" horiz-adv-x="1258" unicode="&#xfb38;"/><glyph d="M266 596l-117-114h-9l172 808h102zM87 974q51 0 51-49 0-12-3-27-17-74-80-74-49 0-49 46 0 12 4 28 16 76 77 76z" horiz-adv-x="442" unicode="&#xfb39;"/><glyph d="M783 892q0 328-312 328-96 0-174-21-26-7-62.5-19t-44.5-14l20 95q44 18 124 33t165.5 15 158-24 116.5-67q93-89 108-222 4-45 4-79 0-101-21-200l-257-1209h-104l257 1209q22 95 22 175zM431 741q51 0 51-49 0-12-3-27-17-74-80-74-49 0-49 46 0 12 4 28 16 76 77 76z" horiz-adv-x="968" unicode="&#xfb3a;"/><glyph d="M501 1309q95 0 176-35t124-91.5 60.5-130 17.5-143.5q0-86-22-192l-38-181q-32-145-99-262-29-50-77.5-106.5t-105.5-96-140-65.5-167.5-26-154.5 9-103 18l-34 9 23 108q11-6 32.5-15t93.5-24 158-15 166 37.5 130.5 90.5 89.5 122q59 105 84 216l38 181q22 95 22 175 0 328-311 328-113 0-236-40-39-12-45-14l20 95q45 19 124 33.5t174 14.5zM376 741q51 0 51-49 0-12-3-27-17-74-80-74-49 0-49 46 0 12 4 28 16 76 77 76z" horiz-adv-x="961" unicode="&#xfb3b;"/><glyph d="M992 1296l-25-114-335-675-199-507h-104l195 496 352 704h-708l79 369h102l-58-273h701zM310 591q-49 0-49 46 0 12 4 28 16 76 77 76 51 0 51-49 0-12-3-27-17-74-80-74z" horiz-adv-x="930" unicode="&#xfb3c;"/><glyph d="M389 1155h13q98 98 260 138 69 17 141 17 179 0 249-114 43-71 43-174 0-62-16-136l-188-886h-385l18 88h284l170 798q13 59 13 108 0 80-33 136-54 90-174 90-83 0-155.5-20t-116.5-48q-92-59-124-106l-13-20-315-1026h-102l309 1005q11 35 13 57t3.5 33 .5 28.5-1 25.5-2.5 27.5-3 24-4.5 26-4 24.5l-8 45h109q19-87 19-141zM616 741q51 0 51-49 0-12-3-27-17-74-80-74-49 0-49 46 0 12 4 28 16 76 77 76z" horiz-adv-x="1200" unicode="&#xfb3e;"/><glyph d="M587 1310q129 0 180-82 33-53 33-128 0-39-9-85l-145-682q-15-68-42.5-151t-47.5-132l-20-50h-546l18 88h456q54 127 80 245l145 682q7 39 7 63.5t-2 39.5q-4 45-38 73.5t-101.5 28.5-162.5-17l20 92q78 15 175 15zM408 741q51 0 51-49 0-12-3-27-17-74-80-74-49 0-49 46 0 12 4 28 16 76 77 76z" horiz-adv-x="884" unicode="&#xfb40;"/><glyph d="M743 1310q225 0 320-156 55-91 55-243 0-114-30-263-73-339-235-503.5t-392-164.5-322 164q-52 92-52 223t32 281q85 400 306 563-16-1-76.5-3t-91.5-4l19 92q275 14 467 14zM842 1203q-51 17-109 17-106 0-175-4l-23-2q-119-94-193-230t-116-336q-33-153-33-254 0-138 48-215 31-50 91-79.5t147-29.5 159.5 29.5 125 79.5 95.5 125q75 133 120 344 32 147 32 257 0 176-86 252-32 29-83 46zM621 741q51 0 51-49 0-12-3-27-17-74-80-74-49 0-49 46 0 12 4 28 16 76 77 76z" horiz-adv-x="1207" unicode="&#xfb41;"/><glyph d="M430 441q-159 0-238 117-53 77-53 186 0 54 13 115 23 109 83 197t139 142q163 112 343 112 230 0 322-163 52-91 52-222t-32-280l-242-1137h-102l242 1137q30 145 30 240.5t-24 172-91.5 119.5-162 43-165.5-23.5-121-61-89-85.5q-105-132-105-297 0-76 31-127 50-83 194-104l14-2-33-79h-5zM634 931q51 0 51-49 0-12-3-27-17-74-80-74-49 0-49 46 0 12 4 28 16 76 77 76z" horiz-adv-x="1222" unicode="&#xfb43;"/><glyph d="M442 441q-159 0-238 117-53 77-53 186 0 54 13 115 23 109 83 197t139 142q162 112 342 112 230 0 322-163 53-92 53-239 0-115-32-263-72-339-233.5-502t-391.5-163q-173 0-284 15l-37 5 19 89q161-19 320-19 87 0 159.5 29t125 78.5 94.5 124 70 157.5 50 186q32 149 32 250 0 140-49 217-31 50-91 79t-144 29-155.5-23.5-121-61-88.5-85.5q-105-128-105-288 0-85 39-147 58-95 185-95h14l-32-79h-5zM652 922q51 0 51-49 0-12-3-27-17-74-80-74-49 0-49 46 0 12 4 28 16 76 77 76z" horiz-adv-x="1190" unicode="&#xfb44;"/><glyph d="M1114 1290l-78-254q-49-157-147.5-298.5t-236.5-245.5l194-429-13-63h-888l19 88h767l-225 492-283 710h108l249-640 38-82q238 184 327 468l79 254h90zM243 571q51 0 51-49 0-12-3-27-17-74-80-74-49 0-49 46 0 12 4 28 16 76 77 76z" horiz-adv-x="1074" unicode="&#xfb46;"/><glyph d="M1213 1202l-302-609q-11-23-40.5-82.5t-47-95-44.5-92.5-45-96-36-83q-39-90-46-127l-4-17h-100l4 17q22 101 240 542 12 23 17 34l302 609h-808l18 88h910zM46-492h-102l266 1251h102zM589 741q51 0 51-49 0-12-3-27-17-74-80-74-49 0-49 46 0 12 4 28 16 76 77 76z" horiz-adv-x="1174" unicode="&#xfb47;"/><glyph d="M197 1300q170 10 264 10t137-3.5 85.5-11 76-21.5 63-33.5 48.5-47.5 30.5-63 11.5-82-12-102l-201-946h-102l201 946q10 47 10 82.5t-9 62-23.5 47.5-38 35-49.5 23.5-61 14.5q-62 9-134 9-118 0-271-8l-45-3zM369 741q51 0 51-49 0-12-3-27-17-74-80-74-49 0-49 46 0 12 4 28 16 76 77 76z" horiz-adv-x="993" unicode="&#xfb48;"/><glyph d="M416 0h-372l165 1290h95l-100-778q94 24 153 48.5t114.5 63.5 97.5 94q87 115 150 318l79 254h91l-79-254q-45-144-95-242t-121.5-173.5-167.5-120.5q-96-47-233-74l-43-339h284q155 0 308 84.5t271 233 174 330.5l172 555h92l-173-555q-72-230-227-411-174-204-391-282-119-42-244-42zM734 526q51 0 51-49 0-12-3-27-17-74-80-74-49 0-49 46 0 12 4 28 16 76 77 76z" horiz-adv-x="1369" unicode="&#xfb49;"/><glyph d="M1094 1193q42-62 42-145 0-47-12-102l-201-946h-102l201 946q10 47 10 82.5t-9 62-23.5 47.5-38 35-49.5 23.5-60 14.5q-63 9-152.5 9t-222.5-7l-193-905q-65-308-331-308-22 0-65 9l18 84q27-3 66-3 77 0 132 53.5t78 164.5l192 900-149-10 20 92q296 20 473.5 20t260-34.5 115.5-82.5zM655 741q51 0 51-49 0-12-3-27-17-74-80-74-49 0-49 46 0 12 4 28 16 76 77 76z" horiz-adv-x="1232" unicode="&#xfb4a;"/><glyph d="M394 1548q51 0 51-49 0-12-3-27-17-74-80-74-49 0-49 46 0 12 4 28 16 76 77 76zM147 0h-102l274 1290h102z" horiz-adv-x="466" unicode="&#xfb4b;"/></font>
</defs>
</svg>
